<svg width="25" height="26" viewBox="0 0 25 26" fill="none" xmlns="http://www.w3.org/2000/svg">
<g clip-path="url(#clip0_85_238)">
<path d="M17.1579 0.388672H17.3342C17.4756 2.13621 16.8086 3.44197 15.9979 4.38755C15.2025 5.32661 14.1133 6.23737 12.3516 6.09918C12.2341 4.37667 12.9022 3.16776 13.7118 2.22435C14.4626 1.34514 15.8391 0.562773 17.1579 0.388672ZM22.4908 18.5779V18.6268C21.9957 20.1263 21.2895 21.4114 20.4277 22.6039C19.641 23.6866 18.6769 25.1436 16.9555 25.1436C15.468 25.1436 14.48 24.1872 12.9555 24.1611C11.3429 24.1349 10.4561 24.9608 8.98167 25.1687H8.47895C7.39626 25.012 6.52249 24.1545 5.88593 23.382C4.00891 21.0991 2.55843 18.1502 2.28857 14.3766V13.2678C2.40283 10.567 3.71511 8.3712 5.45939 7.30701C6.37995 6.74118 7.64544 6.25914 9.05457 6.47459C9.65848 6.56817 10.2755 6.77491 10.8163 6.97948C11.3288 7.17643 11.9697 7.52572 12.5768 7.50722C12.9882 7.49525 13.3973 7.28089 13.8119 7.12964C15.0262 6.69112 16.2166 6.18841 17.7857 6.42453C19.6715 6.70962 21.0099 7.54748 21.8368 8.84018C20.2416 9.85541 18.9805 11.3853 19.1959 13.9979C19.3875 16.3711 20.7672 17.7596 22.4908 18.5779Z" fill="#1D1F2C"/>
</g>
<defs>
<clipPath id="clip0_85_238">
<rect width="24.78" height="24.78" fill="white" transform="translate(0 0.388672)"/>
</clipPath>
</defs>
</svg>
