<svg width="21" height="25" viewBox="0 0 21 25" fill="none" xmlns="http://www.w3.org/2000/svg">
<path d="M15.1584 0H15.3346C15.4761 1.74754 14.8091 3.05329 13.9984 3.99888C13.203 4.93794 12.1138 5.8487 10.3521 5.71051C10.2346 3.988 10.9027 2.77909 11.7123 1.83568C12.4631 0.956467 13.8396 0.174101 15.1584 0ZM20.4913 18.1892V18.2382C19.9962 19.7376 19.29 21.0227 18.4282 22.2153C17.6415 23.298 16.6774 24.755 14.956 24.755C13.4685 24.755 12.4805 23.7985 10.956 23.7724C9.3434 23.7463 8.45657 24.5722 6.98215 24.78H6.47944C5.39675 24.6233 4.52298 23.7659 3.88642 22.9933C2.0094 20.7104 0.558919 17.7616 0.289062 13.9879V12.8791C0.403316 10.1784 1.7156 7.98253 3.45988 6.91833C4.38043 6.35251 5.64593 5.87047 7.05506 6.08592C7.65897 6.17949 8.27594 6.38624 8.81674 6.59081C9.32925 6.78776 9.97016 7.13705 10.5773 7.11855C10.9887 7.10658 11.3978 6.89222 11.8124 6.74097C13.0267 6.30245 14.2171 5.79974 15.7862 6.03586C17.672 6.32095 19.0104 7.15881 19.8373 8.45151C18.2421 9.46674 16.981 10.9966 17.1964 13.6093C17.3879 15.9825 18.7677 17.3709 20.4913 18.1892Z" fill="white"/>
</svg>
