<svg width="25" height="25" viewBox="0 0 25 25" fill="none" xmlns="http://www.w3.org/2000/svg">
<g clip-path="url(#clip0_1501_10889)">
<path d="M17.1584 0H17.3346C17.4761 1.74754 16.8091 3.05329 15.9984 3.99888C15.203 4.93794 14.1138 5.8487 12.3521 5.71051C12.2346 3.988 12.9027 2.77909 13.7123 1.83568C14.4631 0.956467 15.8396 0.174101 17.1584 0ZM22.4913 18.1892V18.2382C21.9962 19.7376 21.29 21.0227 20.4282 22.2153C19.6415 23.298 18.6774 24.755 16.956 24.755C15.4685 24.755 14.4805 23.7985 12.956 23.7724C11.3434 23.7463 10.4566 24.5722 8.98215 24.78H8.47944C7.39675 24.6233 6.52298 23.7659 5.88642 22.9933C4.0094 20.7104 2.55892 17.7616 2.28906 13.9879V12.8791C2.40332 10.1784 3.7156 7.98253 5.45988 6.91833C6.38043 6.35251 7.64593 5.87047 9.05506 6.08592C9.65897 6.17949 10.2759 6.38624 10.8167 6.59081C11.3293 6.78776 11.9702 7.13705 12.5773 7.11855C12.9887 7.10658 13.3978 6.89222 13.8124 6.74097C15.0267 6.30245 16.2171 5.79974 17.7862 6.03586C19.672 6.32095 21.0104 7.15881 21.8373 8.45151C20.2421 9.46674 18.981 10.9966 19.1964 13.6093C19.3879 15.9825 20.7677 17.3709 22.4913 18.1892Z" fill="white"/>
</g>
<defs>
<clipPath id="clip0_1501_10889">
<rect width="24.78" height="24.78" fill="white"/>
</clipPath>
</defs>
</svg>
