<svg width="25" height="25" viewBox="0 0 25 25" fill="none" xmlns="http://www.w3.org/2000/svg">
<g clip-path="url(#clip0_1501_18645)">
<path d="M9.74272 2.40803L0.45022 3.61503C0.325043 3.63118 0.210118 3.69262 0.127165 3.78775C0.0442127 3.88287 -0.00101964 4.00509 1.74462e-05 4.1313V11.3588C1.74462e-05 11.6439 0.231168 11.8751 0.516284 11.8751H9.80878C10.0939 11.8751 10.3251 11.6439 10.3251 11.3588V2.91911C10.325 2.84581 10.3093 2.77337 10.279 2.70661C10.2487 2.63985 10.2046 2.5803 10.1495 2.53193C10.094 2.48419 10.0292 2.44853 9.95914 2.4272C9.88911 2.40587 9.81541 2.39934 9.74272 2.40803Z" fill="#1D1F2C" fill-opacity="0.2"/>
<path d="M24.6044 0.646397C24.5497 0.597121 24.4851 0.560109 24.415 0.537847C24.3448 0.515584 24.2707 0.508584 24.1976 0.517318L11.8076 2.1332C11.6824 2.14934 11.5675 2.21079 11.4846 2.30591C11.4016 2.40104 11.3564 2.52326 11.3574 2.64946V11.3586C11.3574 11.6437 11.5886 11.8749 11.8737 11.8749H24.2637C24.5488 11.8749 24.78 11.6437 24.78 11.3586V1.03358C24.7798 0.960283 24.7641 0.887848 24.7339 0.821091C24.7036 0.754334 24.6594 0.694783 24.6044 0.646397Z" fill="#1D1F2C" fill-opacity="0.2"/>
<path d="M9.80878 12.9082H0.516284C0.231168 12.9082 1.74975e-05 13.1394 1.74975e-05 13.4245V20.652C-0.00102106 20.7782 0.0442045 20.9004 0.127147 20.9955C0.21009 21.0906 0.325003 21.1521 0.450171 21.1682L9.74267 22.3804C9.76469 22.3819 9.78676 22.3819 9.80874 22.3804C10.0939 22.3804 10.325 22.1492 10.325 21.8641V13.4245C10.3251 13.1394 10.0939 12.9082 9.80878 12.9082Z" fill="#1D1F2C" fill-opacity="0.2"/>
<path d="M24.2637 12.9082H11.8737C11.5886 12.9082 11.3574 13.1394 11.3574 13.4245V22.1336C11.3564 22.2598 11.4016 22.382 11.4846 22.4772C11.5675 22.5723 11.6824 22.6337 11.8076 22.6499L24.1976 24.2658C24.2196 24.2673 24.2417 24.2673 24.2637 24.2658C24.5488 24.2658 24.7799 24.0346 24.7799 23.7495V13.4245C24.7799 13.1394 24.5488 12.9082 24.2637 12.9082Z" fill="#1D1F2C" fill-opacity="0.2"/>
</g>
<defs>
<clipPath id="clip0_1501_18645">
<rect width="24.78" height="24.78" fill="white"/>
</clipPath>
</defs>
</svg>
