<svg width="26" height="25" viewBox="0 0 26 25" fill="none" xmlns="http://www.w3.org/2000/svg">
<g clip-path="url(#clip0_1501_18651)">
<path d="M17.9382 0H18.1144C18.2559 1.74754 17.5889 3.05329 16.7782 3.99888C15.9828 4.93794 14.8936 5.8487 13.1319 5.71051C13.0144 3.988 13.6825 2.77909 14.492 1.83568C15.2429 0.956467 16.6193 0.174101 17.9382 0ZM23.2711 18.1892V18.2382C22.776 19.7376 22.0698 21.0227 21.208 22.2153C20.4213 23.298 19.4572 24.755 17.7358 24.755C16.2483 24.755 15.2603 23.7985 13.7358 23.7724C12.1232 23.7463 11.2364 24.5722 9.76194 24.78H9.25922C8.17653 24.6233 7.30276 23.7659 6.66621 22.9933C4.78918 20.7104 3.3387 17.7616 3.06885 13.9879V12.8791C3.1831 10.1784 4.49539 7.98253 6.23966 6.91833C7.16022 6.35251 8.42571 5.87047 9.83484 6.08592C10.4388 6.17949 11.0557 6.38624 11.5965 6.59081C12.109 6.78776 12.7499 7.13705 13.3571 7.11855C13.7684 7.10658 14.1776 6.89222 14.5922 6.74097C15.8065 6.30245 16.9969 5.79974 18.566 6.03586C20.4517 6.32095 21.7901 7.15881 22.6171 8.45151C21.0219 9.46674 19.7608 10.9966 19.9762 13.6093C20.1677 15.9825 21.5475 17.3709 23.2711 18.1892Z" fill="#1D1F2C" fill-opacity="0.2"/>
</g>
<defs>
<clipPath id="clip0_1501_18651">
<rect width="24.78" height="24.78" fill="white" transform="translate(0.779785)"/>
</clipPath>
</defs>
</svg>
