<svg width="21" height="20" viewBox="0 0 21 20" fill="none" xmlns="http://www.w3.org/2000/svg">
<path d="M10.5 0C16.023 0 20.5 4.477 20.5 10C20.5 15.523 16.023 20 10.5 20C8.73279 20.0029 6.99667 19.5352 5.47001 18.645L0.504014 20L1.85601 15.032C0.965107 13.5049 0.497062 11.768 0.500014 10C0.500014 4.477 4.97701 0 10.5 0ZM7.09201 5.3L6.89201 5.308C6.76254 5.31589 6.63599 5.3499 6.52001 5.408C6.41153 5.46943 6.31251 5.54622 6.22601 5.636C6.10601 5.749 6.03801 5.847 5.96501 5.942C5.59514 6.4229 5.39599 7.01331 5.39901 7.62C5.40101 8.11 5.52901 8.587 5.72901 9.033C6.13801 9.935 6.81101 10.89 7.69901 11.775C7.91301 11.988 8.12301 12.202 8.34901 12.401C9.4524 13.3725 10.7673 14.073 12.189 14.447L12.757 14.534C12.942 14.544 13.127 14.53 13.313 14.521C13.6043 14.506 13.8886 14.4271 14.146 14.29C14.277 14.2225 14.4048 14.1491 14.529 14.07C14.529 14.07 14.572 14.042 14.654 13.98C14.789 13.88 14.872 13.809 14.984 13.692C15.067 13.606 15.139 13.505 15.194 13.39C15.272 13.227 15.35 12.916 15.382 12.657C15.406 12.459 15.399 12.351 15.396 12.284C15.392 12.177 15.303 12.066 15.206 12.019L14.624 11.758C14.624 11.758 13.754 11.379 13.222 11.137C13.1663 11.1127 13.1067 11.0988 13.046 11.096C12.9776 11.089 12.9085 11.0967 12.8433 11.1186C12.7781 11.1405 12.7183 11.1761 12.668 11.223C12.663 11.221 12.596 11.278 11.873 12.154C11.8315 12.2098 11.7744 12.2519 11.7088 12.2751C11.6433 12.2982 11.5723 12.3013 11.505 12.284C11.4399 12.2665 11.376 12.2445 11.314 12.218C11.19 12.166 11.147 12.146 11.062 12.11C10.4881 11.8595 9.9567 11.5211 9.48701 11.107C9.36101 10.997 9.24401 10.877 9.12401 10.761C8.7306 10.3842 8.38774 9.95801 8.10401 9.493L8.04501 9.398C8.00264 9.33416 7.96837 9.2653 7.94301 9.193C7.90501 9.046 8.00401 8.928 8.00401 8.928C8.00401 8.928 8.24701 8.662 8.36001 8.518C8.47001 8.378 8.56301 8.242 8.62301 8.145C8.74101 7.955 8.77801 7.76 8.71601 7.609C8.43601 6.925 8.14601 6.244 7.84801 5.568C7.78901 5.434 7.61401 5.338 7.45501 5.319C7.40101 5.313 7.34701 5.307 7.29301 5.303C7.15872 5.29633 7.02415 5.29766 6.89001 5.307L7.09101 5.299L7.09201 5.3Z" fill="white"/>
</svg>
