<svg width="25" height="25" viewBox="0 0 25 25" fill="none" xmlns="http://www.w3.org/2000/svg">
<g clip-path="url(#clip0_1501_10883)">
<path d="M9.96294 2.40803L0.670435 3.61503C0.545258 3.63118 0.430332 3.69262 0.34738 3.78775C0.264428 3.88287 0.219195 4.00509 0.220232 4.1313V11.3588C0.220232 11.6439 0.451383 11.8751 0.736498 11.8751H10.029C10.3141 11.8751 10.5453 11.6439 10.5453 11.3588V2.91911C10.5452 2.84581 10.5295 2.77337 10.4992 2.70661C10.4689 2.63985 10.4248 2.5803 10.3697 2.53193C10.3142 2.48419 10.2494 2.44853 10.1794 2.4272C10.1093 2.40587 10.0356 2.39934 9.96294 2.40803Z" fill="white"/>
<path d="M24.8266 0.646397C24.7719 0.597121 24.7073 0.560109 24.6371 0.537847C24.567 0.515584 24.4928 0.508584 24.4198 0.517318L12.0298 2.1332C11.9046 2.14934 11.7897 2.21079 11.7067 2.30591C11.6238 2.40104 11.5786 2.52326 11.5796 2.64946V11.3586C11.5796 11.6437 11.8108 11.8749 12.0959 11.8749H24.4859C24.771 11.8749 25.0021 11.6437 25.0021 11.3586V1.03358C25.002 0.960283 24.9863 0.887848 24.956 0.821091C24.9257 0.754334 24.8816 0.694783 24.8266 0.646397Z" fill="white"/>
<path d="M10.029 12.9072H0.736498C0.451383 12.9072 0.220232 13.1384 0.220232 13.4235V20.651C0.219194 20.7772 0.264419 20.8994 0.347362 20.9945C0.430305 21.0896 0.545218 21.1511 0.670386 21.1672L9.96289 22.3794C9.98491 22.3809 10.007 22.3809 10.029 22.3794C10.3141 22.3794 10.5452 22.1482 10.5452 21.8631V13.4235C10.5453 13.1384 10.3141 12.9072 10.029 12.9072Z" fill="white"/>
<path d="M24.4859 12.9072H12.0959C11.8108 12.9072 11.5796 13.1384 11.5796 13.4235V22.1326C11.5786 22.2588 11.6238 22.3811 11.7067 22.4762C11.7897 22.5713 11.9046 22.6328 12.0298 22.6489L24.4198 24.2648C24.4418 24.2663 24.4639 24.2663 24.4858 24.2648C24.7709 24.2648 25.0021 24.0336 25.0021 23.7485V13.4235C25.0021 13.1384 24.771 12.9072 24.4859 12.9072Z" fill="white"/>
</g>
<defs>
<clipPath id="clip0_1501_10883">
<rect width="24.78" height="24.78" fill="white" transform="translate(0.220215)"/>
</clipPath>
</defs>
</svg>
