<svg width="40" height="35" viewBox="0 0 40 35" fill="none" xmlns="http://www.w3.org/2000/svg">
<path d="M34.9231 0.478516H5.07688C3.81435 0.481979 2.60452 0.985051 1.71178 1.87779C0.819035 2.77054 0.315964 3.98037 0.3125 5.24289V24.3004C0.315964 25.5629 0.819035 26.7727 1.71178 27.6655C2.60452 28.5582 3.81435 29.0613 5.07688 29.0648H18.6875V31.5323H14.75C14.4019 31.5323 14.0681 31.6705 13.8219 31.9167C13.5758 32.1628 13.4375 32.4967 13.4375 32.8448C13.4375 33.1929 13.5758 33.5267 13.8219 33.7728C14.0681 34.019 14.4019 34.1573 14.75 34.1573L25.25 34.0391C25.5981 34.0391 25.9319 33.9009 26.1781 33.6547C26.4242 33.4086 26.5625 33.0747 26.5625 32.7266C26.5625 32.3785 26.4242 32.0447 26.1781 31.7986C25.9319 31.5524 25.5981 31.4141 25.25 31.4141H21.3125V29.0648H34.9231C36.1857 29.0613 37.3955 28.5582 38.2882 27.6655C39.181 26.7727 39.684 25.5629 39.6875 24.3004V5.24289C39.684 3.98037 39.181 2.77054 38.2882 1.87779C37.3955 0.985051 36.1857 0.481979 34.9231 0.478516ZM37.0625 24.3004C37.0625 24.8678 36.8371 25.4119 36.4359 25.8132C36.0347 26.2144 35.4905 26.4398 34.9231 26.4398H5.07688C4.50948 26.4398 3.96532 26.2144 3.56411 25.8132C3.1629 25.4119 2.9375 24.8678 2.9375 24.3004V5.24289C2.9375 4.67549 3.1629 4.13133 3.56411 3.73012C3.96532 3.32891 4.50948 3.10352 5.07688 3.10352H34.9231C35.2041 3.10352 35.4823 3.15885 35.7418 3.26637C36.0014 3.37388 36.2372 3.53146 36.4359 3.73012C36.6346 3.92878 36.7921 4.16463 36.8997 4.42419C37.0072 4.68375 37.0625 4.96194 37.0625 5.24289V24.3004Z" fill="white"/>
</svg>
