<svg width="42" height="42" viewBox="0 0 42 42" fill="none" xmlns="http://www.w3.org/2000/svg">
<g clip-path="url(#clip0_1501_19057)">
<path d="M21 28C20.7679 28 20.5451 27.9082 20.3805 27.7445L10.7555 18.1195C10.6328 17.9971 10.5492 17.8411 10.5153 17.6711C10.4814 17.5012 10.4988 17.325 10.5651 17.1649C10.6315 17.0049 10.7439 16.8681 10.8881 16.772C11.0322 16.6758 11.2017 16.6247 11.375 16.625H16.625V14C16.625 6.2825 22.9023 0.0035 30.6197 0H30.625C30.8571 0 31.0796 0.0921872 31.2437 0.256282C31.4078 0.420376 31.5 0.642936 31.5 0.875C31.5 1.10706 31.4078 1.32962 31.2437 1.49372C31.0796 1.65781 30.8571 1.75 30.625 1.75C27.7305 1.75 25.375 4.1055 25.375 7V16.625H30.625C30.7983 16.6247 30.9678 16.6758 31.1119 16.772C31.2561 16.8681 31.3685 17.0049 31.4349 17.1649C31.5012 17.325 31.5186 17.5012 31.4847 17.6711C31.4508 17.8411 31.3672 17.9971 31.2445 18.1195L21.6195 27.7445C21.4549 27.9082 21.2321 28 21 28ZM13.4872 18.375L21 25.8878L28.5127 18.375H24.5C24.2679 18.375 24.0454 18.2828 23.8813 18.1187C23.7172 17.9546 23.625 17.7321 23.625 17.5V7C23.625 5.635 24.0187 4.361 24.6943 3.283C22.7807 4.34325 21.1857 5.89612 20.0745 7.78055C18.9634 9.66498 18.3766 11.8124 18.375 14V17.5C18.375 17.7321 18.2828 17.9546 18.1187 18.1187C17.9546 18.2828 17.7321 18.375 17.5 18.375H13.4872ZM36.75 42H5.25C2.3555 42 0 39.6445 0 36.75C0 33.8555 2.3555 31.5 5.25 31.5H36.75C39.6445 31.5 42 33.8555 42 36.75C42 39.6445 39.6445 42 36.75 42ZM5.25 33.25C3.31975 33.25 1.75 34.8198 1.75 36.75C1.75 38.6802 3.31975 40.25 5.25 40.25H36.75C38.6802 40.25 40.25 38.6802 40.25 36.75C40.25 34.8198 38.6802 33.25 36.75 33.25H5.25Z" fill="white"/>
<path d="M9.625 41.127C9.39294 41.127 9.17038 41.0348 9.00628 40.8707C8.84219 40.7066 8.75 40.4841 8.75 40.252V33.245C8.74977 33.013 8.84173 32.7903 9.00566 32.626C9.16959 32.4618 9.39206 32.3694 9.62413 32.3691C9.85619 32.3689 10.0788 32.4609 10.2431 32.6248C10.4074 32.7887 10.4998 33.0112 10.5 33.2433V40.252C10.5 40.4841 10.4078 40.7066 10.2437 40.8707C10.0796 41.0348 9.85706 41.127 9.625 41.127ZM18.375 41.127C18.1429 41.127 17.9204 41.0348 17.7563 40.8707C17.5922 40.7066 17.5 40.4841 17.5 40.252V33.245C17.5 33.013 17.5922 32.7904 17.7563 32.6263C17.9204 32.4622 18.1429 32.37 18.375 32.37C18.6071 32.37 18.8296 32.4622 18.9937 32.6263C19.1578 32.7904 19.25 33.013 19.25 33.245V40.252C19.25 40.4841 19.1578 40.7066 18.9937 40.8707C18.8296 41.0348 18.6071 41.127 18.375 41.127Z" fill="white"/>
</g>
<defs>
<clipPath id="clip0_1501_19057">
<rect width="42" height="42" fill="white"/>
</clipPath>
</defs>
</svg>
