<svg width="42" height="42" viewBox="0 0 42 42" fill="none" xmlns="http://www.w3.org/2000/svg">
<path d="M38.0209 3.24084C37.6801 3.25125 37.3567 3.39388 37.1192 3.63853L30.5567 10.201C30.3107 10.4472 30.1724 10.7809 30.1724 11.129C30.1724 11.477 30.3107 11.8108 30.5567 12.0569L37.1192 18.6194C37.2403 18.7448 37.3851 18.8447 37.5452 18.9135C37.7054 18.9823 37.8776 19.0185 38.0519 19.02C38.2262 19.0216 38.399 18.9884 38.5603 18.9224C38.7216 18.8564 38.8681 18.7589 38.9914 18.6357C39.1146 18.5124 39.2121 18.3659 39.278 18.2046C39.344 18.0433 39.3772 17.8705 39.3757 17.6962C39.3742 17.5219 39.338 17.3497 39.2692 17.1896C39.2004 17.0294 39.1004 16.8846 38.9751 16.7635L33.3405 11.129L38.9751 5.4944C39.165 5.31006 39.2947 5.07262 39.3472 4.81325C39.3997 4.55387 39.3726 4.28468 39.2694 4.04099C39.1662 3.79729 38.9918 3.59048 38.769 3.44769C38.5462 3.3049 38.2854 3.2328 38.0209 3.24084ZM31.4847 17.2492C31.2232 17.2489 30.9677 17.3267 30.7508 17.4727C30.5339 17.6186 30.3655 17.826 30.2672 18.0682C30.1689 18.3105 30.1452 18.5766 30.1991 18.8324C30.253 19.0882 30.3821 19.3221 30.5698 19.504L36.2044 25.1386L30.5698 30.7732C30.3237 31.0196 30.1856 31.3537 30.1859 31.702C30.1861 32.0503 30.3247 32.3842 30.5712 32.6303C30.8176 32.8764 31.1517 33.0146 31.5 33.0143C31.8483 33.0141 32.1822 32.8755 32.4283 32.629L38.9908 26.0665C39.2369 25.8204 39.3751 25.4866 39.3751 25.1386C39.3751 24.7906 39.2369 24.4568 38.9908 24.2107L32.4283 17.6482C32.3057 17.5216 32.1588 17.4211 31.9964 17.3525C31.8341 17.284 31.6596 17.2488 31.4833 17.2492H31.4847Z" fill="white"/>
<path d="M3.93506 7.25977C3.58696 7.25977 3.25312 7.39805 3.00698 7.64419C2.76084 7.89033 2.62256 8.22417 2.62256 8.57227V29.5723C2.62256 29.9204 2.76084 30.2542 3.00698 30.5003C3.25312 30.7465 3.58696 30.8848 3.93506 30.8848H19.6877V36.1348H11.8297C11.6548 36.1319 11.4811 36.1642 11.3188 36.2297C11.1566 36.2952 11.0091 36.3926 10.8852 36.516C10.7612 36.6395 10.6633 36.7866 10.5972 36.9486C10.531 37.1105 10.4981 37.2841 10.5002 37.4591C10.512 38.1915 11.1066 38.7716 11.8297 38.7611H30.1667C31.9412 38.7873 31.9412 36.1111 30.1667 36.1361H22.3127V30.8861H26.2318C26.5799 30.8861 26.9137 30.7478 27.1599 30.5017C27.406 30.2555 27.5443 29.9217 27.5443 29.5736C27.5443 29.2255 27.406 28.8916 27.1599 28.6455C26.9137 28.3994 26.5799 28.2611 26.2318 28.2611H5.24756V9.88608H26.2344C26.5825 9.88608 26.9164 9.7478 27.1625 9.50166C27.4087 9.25551 27.5469 8.92167 27.5469 8.57358C27.5469 8.22548 27.4087 7.89164 27.1625 7.6455C26.9164 7.39936 26.5825 7.26108 26.2344 7.26108L3.93506 7.25977Z" fill="white"/>
</svg>
