<svg id="Layer_1" enable-background="new 0 0 512 512" height="512" fill="#9D51F9" viewBox="0 0 512 512" width="512" xmlns="http://www.w3.org/2000/svg"><path clip-rule="evenodd" d="m417.765 486.591-68.203-88.271h38.512c6.076 0 10.998-4.932 10.998-10.999v-354.022c0-4.851 3.951-8.797 8.797-8.797h19.797c4.846 0 8.797 3.946 8.797 8.797v354.021c0 6.067 4.922 10.999 11.004 10.999h38.506zm89.615-98.78c-3.488-7.09-10.561-11.488-18.457-11.488h-30.459v-343.024c0-16.981-13.822-30.799-30.799-30.799h-19.797c-16.977 0-30.793 13.817-30.793 30.799v343.023h-30.451c-7.91 0-14.992 4.398-18.471 11.488-3.484 7.091-2.631 15.379 2.201 21.63l71.15 92.081c3.918 5.068 9.848 7.978 16.26 7.978 6.416 0 12.346-2.909 16.27-7.978l71.148-92.081c4.833-6.25 5.682-14.538 2.198-21.629zm-251.389-18.598-68.199-88.272h38.512c6.076 0 10.998-4.922 10.998-10.998v-236.644c0-4.851 3.951-8.797 8.799-8.797h19.789c4.852 0 8.803 3.946 8.803 8.797v236.644c0 6.076 4.922 10.998 10.998 10.998h38.512zm89.619-98.78c3.484 7.09 2.641 15.378-2.197 21.639l-71.148 92.067c-3.922 5.082-9.854 7.991-16.266 7.991-6.416 0-12.346-2.909-16.268-7.991l-71.15-92.067c-4.838-6.261-5.682-14.549-2.197-21.635 3.48-7.09 10.561-11.493 18.467-11.493h30.449v-225.645c0-16.981 13.824-30.799 30.801-30.799h19.789c16.982 0 30.805 13.817 30.805 30.799v225.645h30.459c7.896 0 14.978 4.403 18.456 11.489zm-251.379-18.594-68.209-88.271h38.508c6.082 0 11.004-4.922 11.004-10.999v-119.27c0-4.851 3.949-8.797 8.797-8.797h19.791c4.85 0 8.801 3.946 8.801 8.797v119.27c0 6.077 4.922 10.999 10.998 10.999h38.521zm89.61-98.78c-3.479-7.086-10.559-11.489-18.471-11.489h-30.449v-108.271c0-16.981-13.818-30.799-30.799-30.799h-19.791c-16.977 0-30.799 13.817-30.799 30.799v108.271h-30.461c-7.9 0-14.967 4.403-18.447 11.494-3.484 7.085-2.641 15.373 2.188 21.629l71.15 92.076c3.922 5.073 9.852 7.986 16.27 7.986 6.41 0 12.342-2.913 16.264-7.986l71.145-92.076c4.84-6.256 5.68-14.549 2.2-21.634z" fill-rule="evenodd"/></svg>