<svg width="782" height="206" viewBox="0 0 782 206" fill="none" xmlns="http://www.w3.org/2000/svg">
<g style="mix-blend-mode:screen" opacity="0.15">
<mask id="path-1-outside-1_177_966" maskUnits="userSpaceOnUse" x="6" y="-1" width="774" height="208" fill="black">
<rect fill="white" x="6" y="-1" width="774" height="208"/>
<path d="M16.56 112.906C27.046 53.2 31.326 29.66 61.286 29.66C83.328 29.66 86.966 43.142 82.686 75.456H62.784C65.994 52.13 64.71 46.78 58.29 46.78C48.446 46.78 46.52 57.266 36.676 112.906C25.762 174.752 24.264 183.74 34.108 183.74C41.17 183.74 44.166 178.39 49.516 150.784H69.632C61.286 190.374 53.368 205.14 30.256 205.14C0.296 205.14 4.576 181.386 16.56 112.906ZM85.3816 203L115.556 31.8H150.224C172.266 31.8 177.402 45.282 172.908 71.176C168.628 94.502 163.492 107.77 155.788 114.19L155.574 115.474C160.71 117.4 160.71 127.458 158.57 152.496L153.862 203H132.462L138.668 152.496C141.664 127.03 138.668 121.68 132.248 121.68H121.12L106.782 203H85.3816ZM124.116 104.56H137.384C144.874 104.56 148.298 97.07 153.006 71.176C155.788 54.27 153.648 48.92 147.228 48.92H133.96L124.116 104.56ZM181.065 203L211.239 31.8H260.459L257.463 48.92H229.643L219.799 104.56H243.339L240.343 121.68H216.803L206.317 181.6H234.137L230.285 203H181.065ZM255.223 203L271.059 113.12C281.545 53.414 285.825 29.874 317.925 29.874C350.025 29.874 345.745 53.414 335.259 113.12L319.423 203H298.023L306.797 153.78H285.397L276.623 203H255.223ZM288.393 136.66H309.793L313.859 113.12C323.703 57.48 325.415 46.994 314.715 46.994C304.015 46.994 302.303 57.48 292.459 113.12L288.393 136.66ZM363.747 203L390.497 51.06H369.097L372.521 31.8H436.721L433.297 51.06H411.897L385.147 203H363.747ZM429.454 203L459.628 31.8H481.028L450.854 203H429.454ZM499.416 203L506.05 31.8H528.52L519.104 158.06H521.244L556.34 31.8H578.81L525.096 203H499.416ZM588.727 97.75C600.977 28 607.477 0.499985 644.977 0.499985C682.477 0.499985 678.977 28 666.727 97.75C652.727 177.75 646.227 205.5 608.727 205.5C571.227 205.5 574.727 177.75 588.727 97.75ZM613.227 180.5C627.227 180.5 628.977 170 641.727 97.75C653.227 32.75 655.477 20.5 641.477 20.5C627.477 20.5 625.227 32.75 613.727 97.75C600.977 170 599.227 180.5 613.227 180.5ZM686.377 142H711.627C706.377 174.25 707.877 180.5 716.877 180.5C729.127 180.5 730.877 170.25 735.627 143C742.627 103 691.377 113.75 700.627 60.5C706.127 29.25 711.377 0.499985 748.877 0.499985C776.627 0.499985 781.377 16.25 776.377 54H751.377C755.127 26.75 753.377 20.5 745.377 20.5C733.127 20.5 730.627 34 725.877 60.5C719.127 99.25 771.377 85.5 761.127 143C755.127 178 750.127 205.5 712.377 205.5C683.377 205.5 679.627 188.25 686.377 142Z"/>
</mask>
<path d="M16.56 112.906L15.5751 112.733L15.575 112.734L16.56 112.906ZM82.686 75.456V76.456H83.5623L83.6773 75.5873L82.686 75.456ZM62.784 75.456L61.7933 75.3197L61.637 76.456H62.784V75.456ZM36.676 112.906L35.6913 112.732L35.6912 112.732L36.676 112.906ZM49.516 150.784V149.784H48.6912L48.5343 150.594L49.516 150.784ZM69.632 150.784L70.6105 150.99L70.8648 149.784H69.632V150.784ZM17.5449 113.079C22.7992 83.1619 26.4709 62.5115 32.5291 49.3103C35.5428 42.7434 39.1101 38.1109 43.6819 35.1067C48.2508 32.1045 53.9273 30.66 61.286 30.66V28.66C53.6647 28.66 47.5712 30.158 42.5836 33.4353C37.5991 36.7107 33.8234 41.6949 30.7114 48.4761C24.5181 61.9715 20.8068 82.9441 15.5751 112.733L17.5449 113.079ZM61.286 30.66C66.7066 30.66 70.888 31.4908 74.0663 33.1571C77.2174 34.8092 79.4529 37.319 80.9356 40.8293C82.43 44.3676 83.165 48.938 83.2476 54.6823C83.3302 60.4202 82.7619 67.2671 81.6947 75.3247L83.6773 75.5873C84.7501 67.4879 85.332 60.5318 85.2474 54.6535C85.1629 48.7816 84.4132 43.9227 82.778 40.0511C81.1309 36.1517 78.5915 33.2714 74.9949 31.3858C71.4255 29.5144 66.8864 28.66 61.286 28.66V30.66ZM82.686 74.456H62.784V76.456H82.686V74.456ZM63.7747 75.5923C65.376 63.9563 65.8864 56.6334 65.1341 52.2033C64.7547 49.9687 64.0306 48.3137 62.8169 47.2334C61.5898 46.1413 60.0248 45.78 58.29 45.78V47.78C59.7653 47.78 60.7682 48.0875 61.4872 48.7274C62.2196 49.3792 62.8196 50.5195 63.1624 52.5382C63.8546 56.6146 63.4021 63.6297 61.7933 75.3197L63.7747 75.5923ZM58.29 45.78C55.611 45.78 53.3564 46.511 51.4111 48.6077C49.5321 50.6329 48.0079 53.8651 46.5271 58.6843C43.5615 68.336 40.6066 84.9497 35.6913 112.732L37.6607 113.08C42.5894 85.2223 45.5195 68.7729 48.4389 59.2717C49.9006 54.5144 51.3189 51.6476 52.8773 49.968C54.3693 48.3598 56.047 47.78 58.29 47.78V45.78ZM35.6912 112.732C30.2414 143.614 27.1213 161.407 26.609 171.464C26.3549 176.453 26.7203 179.788 27.9615 181.88C29.3006 184.136 31.5024 184.74 34.108 184.74V182.74C31.7916 182.74 30.4891 182.22 29.6815 180.859C28.7761 179.333 28.3523 176.555 28.6065 171.566C29.1107 161.668 32.1966 144.044 37.6608 113.08L35.6912 112.732ZM34.108 184.74C36.0066 184.74 37.7355 184.378 39.3088 183.297C40.8641 182.228 42.164 180.527 43.3554 178.047C45.7211 173.123 47.827 164.755 50.4977 150.974L48.5343 150.594C45.855 164.419 43.7879 172.529 41.5526 177.181C40.4435 179.49 39.3359 180.852 38.1761 181.649C37.0343 182.433 35.7404 182.74 34.108 182.74V184.74ZM49.516 151.784H69.632V149.784H49.516V151.784ZM68.6535 150.578C64.4777 170.386 60.4414 183.788 54.6559 192.244C51.782 196.444 48.4909 199.399 44.5482 201.315C40.598 203.234 35.9291 204.14 30.256 204.14V206.14C36.1389 206.14 41.1267 205.2 45.4222 203.114C49.7253 201.023 53.2687 197.813 56.3066 193.373C62.3446 184.548 66.4403 170.772 70.6105 150.99L68.6535 150.578ZM30.256 204.14C22.8726 204.14 17.8213 202.672 14.4643 199.619C11.1105 196.568 9.25512 191.759 8.67572 184.622C8.09647 177.487 8.80527 168.187 10.4219 156.343C12.0372 144.509 14.5478 130.205 17.545 113.078L15.575 112.734C12.5802 129.847 10.0618 144.192 8.44031 156.072C6.82023 167.942 6.08453 177.421 6.68228 184.784C7.27988 192.145 9.223 197.555 13.1185 201.098C17.0107 204.638 22.6594 206.14 30.256 206.14V204.14ZM85.3816 203L84.3968 202.826L84.1899 204H85.3816V203ZM115.556 31.8V30.8H114.716L114.571 31.6264L115.556 31.8ZM172.908 71.176L173.891 71.3565L173.893 71.347L172.908 71.176ZM155.788 114.19L155.147 113.422L154.862 113.659L154.801 114.026L155.788 114.19ZM155.574 115.474L154.587 115.31L154.452 116.121L155.222 116.41L155.574 115.474ZM158.57 152.496L159.565 152.589L159.566 152.581L158.57 152.496ZM153.862 203V204H154.773L154.857 203.093L153.862 203ZM132.462 203L131.469 202.878L131.331 204H132.462V203ZM138.668 152.496L139.66 152.618L139.661 152.613L138.668 152.496ZM121.12 121.68V120.68H120.28L120.135 121.506L121.12 121.68ZM106.782 203V204H107.621L107.766 203.174L106.782 203ZM124.116 104.56L123.131 104.386L122.923 105.56H124.116V104.56ZM153.006 71.176L153.989 71.3549L153.991 71.3466L153.992 71.3384L153.006 71.176ZM133.96 48.92V47.92H133.121L132.975 48.7458L133.96 48.92ZM86.3664 203.174L116.54 31.9736L114.571 31.6264L84.3968 202.826L86.3664 203.174ZM115.556 32.8H150.224V30.8H115.556V32.8ZM150.224 32.8C161.041 32.8 167.393 36.0904 170.632 42.2435C173.943 48.5351 174.164 58.086 171.922 71.005L173.893 71.347C176.145 58.372 176.045 48.2349 172.402 41.312C168.685 34.2506 161.448 30.8 150.224 30.8V32.8ZM171.924 70.9955C169.789 82.6306 167.449 91.7069 164.702 98.655C161.953 105.605 158.823 110.359 155.147 113.422L156.428 114.958C160.456 111.601 163.746 106.511 166.562 99.3905C169.378 92.2681 171.746 83.0474 173.891 71.3565L171.924 70.9955ZM154.801 114.026L154.587 115.31L156.56 115.638L156.774 114.354L154.801 114.026ZM155.222 116.41C156.194 116.775 156.982 117.528 157.59 118.945C158.213 120.394 158.618 122.481 158.802 125.382C159.171 131.179 158.644 139.877 157.573 152.411L159.566 152.581C160.635 140.077 161.178 131.227 160.798 125.254C160.608 122.27 160.184 119.916 159.428 118.156C158.659 116.362 157.521 115.136 155.925 114.538L155.222 116.41ZM157.574 152.403L152.866 202.907L154.857 203.093L159.565 152.589L157.574 152.403ZM153.862 202H132.462V204H153.862V202ZM133.454 203.122L139.66 152.618L137.675 152.374L131.469 202.878L133.454 203.122ZM139.661 152.613C141.158 139.884 141.186 132.009 139.956 127.286C139.335 124.9 138.366 123.21 137.001 122.13C135.629 121.044 133.989 120.68 132.248 120.68V122.68C133.716 122.68 134.859 122.985 135.76 123.698C136.668 124.417 137.465 125.655 138.021 127.79C139.145 132.109 139.173 139.642 137.674 152.379L139.661 152.613ZM132.248 120.68H121.12V122.68H132.248V120.68ZM120.135 121.506L105.797 202.826L107.766 203.174L122.104 121.854L120.135 121.506ZM106.782 202H85.3816V204H106.782V202ZM124.116 105.56H137.384V103.56H124.116V105.56ZM137.384 105.56C139.44 105.56 141.281 105.04 142.93 103.78C144.554 102.538 145.917 100.634 147.144 98.0006C149.587 92.7579 151.638 84.2884 153.989 71.3549L152.022 70.9971C149.665 83.9576 147.65 92.1801 145.331 97.1559C144.178 99.6313 142.986 101.219 141.715 102.191C140.468 103.144 139.072 103.56 137.384 103.56V105.56ZM153.992 71.3384C155.384 62.8837 155.586 57.1196 154.529 53.4325C153.99 51.5552 153.104 50.1404 151.816 49.2095C150.533 48.2825 148.967 47.92 147.228 47.92V49.92C148.698 49.92 149.808 50.2262 150.644 50.8307C151.476 51.4312 152.155 52.4106 152.606 53.9839C153.528 57.1983 153.41 62.5623 152.019 71.0136L153.992 71.3384ZM147.228 47.92H133.96V49.92H147.228V47.92ZM132.975 48.7458L123.131 104.386L125.1 104.734L134.944 49.0942L132.975 48.7458ZM181.065 203L180.08 202.826L179.874 204H181.065V203ZM211.239 31.8V30.8H210.4L210.254 31.6264L211.239 31.8ZM260.459 31.8L261.444 31.9724L261.649 30.8H260.459V31.8ZM257.463 48.92V49.92H258.303L258.448 49.0924L257.463 48.92ZM229.643 48.92V47.92H228.805L228.658 48.7458L229.643 48.92ZM219.799 104.56L218.814 104.386L218.607 105.56H219.799V104.56ZM243.339 104.56L244.324 104.732L244.529 103.56H243.339V104.56ZM240.343 121.68V122.68H241.183L241.328 121.852L240.343 121.68ZM216.803 121.68V120.68H215.963L215.818 121.508L216.803 121.68ZM206.317 181.6L205.332 181.428L205.127 182.6H206.317V181.6ZM234.137 181.6L235.121 181.777L235.333 180.6H234.137V181.6ZM230.285 203V204H231.121L231.269 203.177L230.285 203ZM182.05 203.174L212.224 31.9736L210.254 31.6264L180.08 202.826L182.05 203.174ZM211.239 32.8H260.459V30.8H211.239V32.8ZM259.474 31.6276L256.478 48.7476L258.448 49.0924L261.444 31.9724L259.474 31.6276ZM257.463 47.92H229.643V49.92H257.463V47.92ZM228.658 48.7458L218.814 104.386L220.784 104.734L230.628 49.0942L228.658 48.7458ZM219.799 105.56H243.339V103.56H219.799V105.56ZM242.354 104.388L239.358 121.508L241.328 121.852L244.324 104.732L242.354 104.388ZM240.343 120.68H216.803V122.68H240.343V120.68ZM215.818 121.508L205.332 181.428L207.302 181.772L217.788 121.852L215.818 121.508ZM206.317 182.6H234.137V180.6H206.317V182.6ZM233.153 181.423L229.301 202.823L231.269 203.177L235.121 181.777L233.153 181.423ZM230.285 202H181.065V204H230.285V202ZM255.223 203L254.239 202.826L254.032 204H255.223V203ZM271.059 113.12L272.044 113.294L272.044 113.293L271.059 113.12ZM335.259 113.12L336.244 113.294L336.244 113.293L335.259 113.12ZM319.423 203V204H320.263L320.408 203.174L319.423 203ZM298.023 203L297.039 202.825L296.829 204H298.023V203ZM306.797 153.78L307.782 153.955L307.991 152.78H306.797V153.78ZM285.397 153.78V152.78H284.56L284.413 153.605L285.397 153.78ZM276.623 203V204H277.461L277.608 203.175L276.623 203ZM288.393 136.66L287.408 136.49L287.206 137.66H288.393V136.66ZM309.793 136.66V137.66H310.635L310.779 136.83L309.793 136.66ZM313.859 113.12L312.875 112.946L312.874 112.95L313.859 113.12ZM292.459 113.12L291.475 112.946L291.474 112.95L292.459 113.12ZM256.208 203.174L272.044 113.294L270.075 112.946L254.239 202.826L256.208 203.174ZM272.044 113.293C277.299 83.3721 280.97 62.7321 287.289 49.5392C290.43 42.9808 294.191 38.346 299.061 35.3356C303.934 32.3232 310.02 30.874 317.925 30.874V28.874C309.781 28.874 303.294 30.3673 298.009 33.6344C292.721 36.9036 288.737 41.8855 285.485 48.6753C279.018 62.1788 275.306 83.1618 270.074 112.947L272.044 113.293ZM317.925 30.874C325.854 30.874 331.336 32.3324 335.028 35.2678C338.696 38.1838 340.771 42.6995 341.57 49.2286C342.369 55.7725 341.869 64.2094 340.497 74.7958C339.126 85.3715 336.897 98.0122 334.274 112.947L336.244 113.293C338.864 98.3748 341.103 85.6833 342.48 75.0529C343.857 64.4332 344.387 55.7902 343.555 48.9859C342.721 42.1668 340.503 37.0658 336.273 33.7023C332.067 30.3581 326.047 28.874 317.925 28.874V30.874ZM334.275 112.946L318.439 202.826L320.408 203.174L336.244 113.294L334.275 112.946ZM319.423 202H298.023V204H319.423V202ZM299.008 203.175L307.782 153.955L305.813 153.605L297.039 202.825L299.008 203.175ZM306.797 152.78H285.397V154.78H306.797V152.78ZM284.413 153.605L275.639 202.825L277.608 203.175L286.382 153.955L284.413 153.605ZM276.623 202H255.223V204H276.623V202ZM288.393 137.66H309.793V135.66H288.393V137.66ZM310.779 136.83L314.845 113.29L312.874 112.95L308.808 136.49L310.779 136.83ZM314.844 113.294C319.758 85.5186 322.667 68.8927 322.991 59.2255C323.152 54.4214 322.691 51.0935 321.321 48.9612C319.867 46.6979 317.55 45.994 314.715 45.994V47.994C317.231 47.994 318.712 48.6008 319.639 50.0424C320.649 51.615 321.152 54.3861 320.992 59.1585C320.674 68.6442 317.805 85.0814 312.875 112.946L314.844 113.294ZM314.715 45.994C311.847 45.994 309.449 46.7094 307.395 48.8012C305.403 50.8294 303.821 54.0695 302.312 58.8934C299.291 68.5487 296.389 85.1686 291.475 112.946L293.444 113.294C298.374 85.4314 301.249 68.9883 304.221 59.4906C305.708 54.7379 307.175 51.879 308.822 50.2024C310.406 48.5893 312.233 47.994 314.715 47.994V45.994ZM291.474 112.95L287.408 136.49L289.379 136.83L293.445 113.29L291.474 112.95ZM363.747 203L362.762 202.827L362.556 204H363.747V203ZM390.497 51.06L391.482 51.2334L391.688 50.06H390.497V51.06ZM369.097 51.06L368.112 50.885L367.904 52.06H369.097V51.06ZM372.521 31.8V30.8H371.683L371.536 31.625L372.521 31.8ZM436.721 31.8L437.706 31.975L437.914 30.8H436.721V31.8ZM433.297 51.06V52.06H434.135L434.282 51.235L433.297 51.06ZM411.897 51.06V50.06H411.058L410.912 50.8866L411.897 51.06ZM385.147 203V204H385.986L386.132 203.173L385.147 203ZM364.732 203.173L391.482 51.2334L389.512 50.8866L362.762 202.827L364.732 203.173ZM390.497 50.06H369.097V52.06H390.497V50.06ZM370.082 51.235L373.506 31.975L371.536 31.625L368.112 50.885L370.082 51.235ZM372.521 32.8H436.721V30.8H372.521V32.8ZM435.736 31.625L432.312 50.885L434.282 51.235L437.706 31.975L435.736 31.625ZM433.297 50.06H411.897V52.06H433.297V50.06ZM410.912 50.8866L384.162 202.827L386.132 203.173L412.882 51.2334L410.912 50.8866ZM385.147 202H363.747V204H385.147V202ZM429.454 203L428.469 202.826L428.262 204H429.454V203ZM459.628 31.8V30.8H458.789L458.643 31.6264L459.628 31.8ZM481.028 31.8L482.013 31.9736L482.22 30.8H481.028V31.8ZM450.854 203V204H451.693L451.839 203.174L450.854 203ZM430.439 203.174L460.613 31.9736L458.643 31.6264L428.469 202.826L430.439 203.174ZM459.628 32.8H481.028V30.8H459.628V32.8ZM480.043 31.6264L449.869 202.826L451.839 203.174L482.013 31.9736L480.043 31.6264ZM450.854 202H429.454V204H450.854V202ZM499.416 203L498.416 202.961L498.376 204H499.416V203ZM506.05 31.8V30.8H505.088L505.05 31.7613L506.05 31.8ZM528.52 31.8L529.517 31.8744L529.597 30.8H528.52V31.8ZM519.104 158.06L518.106 157.986L518.026 159.06H519.104V158.06ZM521.244 158.06V159.06H522.004L522.207 158.328L521.244 158.06ZM556.34 31.8V30.8H555.58L555.376 31.5322L556.34 31.8ZM578.81 31.8L579.764 32.0994L580.171 30.8H578.81V31.8ZM525.096 203V204H525.83L526.05 203.299L525.096 203ZM500.415 203.039L507.049 31.8387L505.05 31.7613L498.416 202.961L500.415 203.039ZM506.05 32.8H528.52V30.8H506.05V32.8ZM527.522 31.7256L518.106 157.986L520.101 158.134L529.517 31.8744L527.522 31.7256ZM519.104 159.06H521.244V157.06H519.104V159.06ZM522.207 158.328L557.303 32.0678L555.376 31.5322L520.28 157.792L522.207 158.328ZM556.34 32.8H578.81V30.8H556.34V32.8ZM577.856 31.5006L524.141 202.701L526.05 203.299L579.764 32.0994L577.856 31.5006ZM525.096 202H499.416V204H525.096V202ZM588.727 97.75L587.742 97.577L587.742 97.5776L588.727 97.75ZM666.727 97.75L665.742 97.577L665.742 97.5776L666.727 97.75ZM641.727 97.75L640.742 97.5758L640.742 97.5762L641.727 97.75ZM613.727 97.75L612.742 97.5758L612.742 97.5762L613.727 97.75ZM589.711 97.923C595.846 62.9912 600.514 38.8502 608.276 23.4181C612.139 15.7377 616.737 10.2871 622.607 6.74274C628.48 3.1964 635.722 1.49998 644.977 1.49998V-0.500015C635.481 -0.500015 627.849 1.24107 621.573 5.03067C615.294 8.8222 610.47 14.606 606.489 22.5194C598.564 38.2747 593.857 62.7587 587.742 97.577L589.711 97.923ZM644.977 1.49998C654.253 1.49998 660.805 3.20484 665.307 6.67843C669.785 10.1333 672.4 15.4683 673.518 23.1135C674.639 30.7761 674.239 40.6461 672.776 53.0115C671.315 65.3659 668.805 80.1355 665.742 97.577L667.711 97.923C670.773 80.4895 673.294 65.6654 674.763 53.2463C676.23 40.8383 676.658 30.7552 675.497 22.824C674.334 14.8755 671.559 8.97608 666.529 5.09497C661.523 1.23263 654.45 -0.500015 644.977 -0.500015V1.49998ZM665.742 97.5776C658.732 137.634 653.626 164.41 645.636 181.195C641.657 189.554 637 195.348 631.107 199.068C625.214 202.788 617.98 204.5 608.727 204.5V206.5C618.223 206.5 625.865 204.743 632.174 200.76C638.484 196.777 643.358 190.634 647.442 182.055C655.577 164.965 660.722 137.866 667.712 97.9224L665.742 97.5776ZM608.727 204.5C599.449 204.5 592.911 202.779 588.444 199.139C583.996 195.514 581.421 189.837 580.407 181.504C579.391 173.161 579.956 162.292 581.664 148.459C583.372 134.636 586.211 117.926 589.712 97.9224L587.742 97.5776C584.242 117.574 581.394 134.333 579.679 148.213C577.966 162.083 577.375 173.151 578.421 181.746C579.469 190.351 582.176 196.611 587.181 200.689C592.167 204.752 599.254 206.5 608.727 206.5V204.5ZM613.227 181.5C616.859 181.5 619.878 180.815 622.464 178.471C624.997 176.177 626.992 172.397 628.897 166.527C632.705 154.786 636.345 134.002 642.711 97.9238L640.742 97.5762C634.359 133.748 630.748 154.339 626.994 165.91C625.117 171.697 623.253 175.058 621.121 176.989C619.044 178.872 616.594 179.5 613.227 179.5V181.5ZM642.711 97.9242C648.452 65.4757 651.912 46.0584 652.164 34.7723C652.289 29.154 651.635 25.2924 649.847 22.8405C647.989 20.2926 645.1 19.5 641.477 19.5V21.5C644.853 21.5 646.933 22.2386 648.231 24.0189C649.599 25.8951 650.289 29.1585 650.164 34.7277C649.917 45.8166 646.501 65.0243 640.742 97.5758L642.711 97.9242ZM641.477 19.5C637.814 19.5 634.776 20.3081 632.176 22.6927C629.626 25.0311 627.607 28.7908 625.716 34.4322C621.936 45.7097 618.484 65.1215 612.742 97.5758L614.711 97.9242C620.469 65.3785 623.892 46.1653 627.612 35.0678C629.471 29.5217 631.358 26.1564 633.528 24.1666C635.646 22.2232 638.139 21.5 641.477 21.5V19.5ZM612.742 97.5762C606.376 133.651 602.729 154.441 602.446 166.195C602.305 172.041 602.979 175.926 604.809 178.335C606.708 180.835 609.641 181.5 613.227 181.5V179.5C609.812 179.5 607.714 178.852 606.402 177.126C605.021 175.308 604.305 172.053 604.445 166.243C604.724 154.684 608.328 134.099 614.711 97.9238L612.742 97.5762ZM686.377 142V141H685.512L685.387 141.856L686.377 142ZM711.627 142L712.614 142.161L712.803 141H711.627V142ZM735.627 143L734.642 142.828L734.642 142.828L735.627 143ZM700.627 60.5L699.642 60.3267L699.642 60.3288L700.627 60.5ZM776.377 54V55H777.253L777.368 54.1313L776.377 54ZM751.377 54L750.386 53.8637L750.23 55H751.377V54ZM725.877 60.5L724.893 60.3236L724.892 60.3284L725.877 60.5ZM761.127 143L760.142 142.824L760.141 142.831L761.127 143ZM686.377 143H711.627V141H686.377V143ZM710.64 141.839C708.021 157.927 707.048 167.715 707.919 173.493C708.359 176.41 709.293 178.48 710.886 179.792C712.473 181.098 714.535 181.5 716.877 181.5V179.5C714.719 179.5 713.218 179.121 712.157 178.247C711.102 177.379 710.301 175.871 709.897 173.195C709.081 167.785 709.983 158.323 712.614 142.161L710.64 141.839ZM716.877 181.5C720.082 181.5 722.709 180.828 724.884 179.289C727.049 177.758 728.661 175.445 729.983 172.363C732.604 166.259 734.248 156.734 736.612 143.172L734.642 142.828C732.256 156.516 730.65 165.741 728.146 171.574C726.906 174.462 725.486 176.414 723.729 177.656C721.983 178.891 719.797 179.5 716.877 179.5V181.5ZM736.612 143.172C738.402 132.941 736.473 125.846 732.64 120.163C728.862 114.563 723.246 110.378 717.923 105.95C712.549 101.48 707.375 96.6973 704.08 89.7994C700.795 82.9221 699.327 73.8289 701.612 60.6711L699.642 60.3288C697.302 73.7961 698.772 83.3279 702.275 90.6615C705.769 97.9746 711.236 102.989 716.644 107.488C722.102 112.028 727.408 115.984 730.982 121.282C734.5 126.497 736.352 133.059 734.642 142.828L736.612 143.172ZM701.612 60.6733C704.371 44.9944 707.036 30.1995 713.608 19.2975C716.877 13.876 721.099 9.44372 726.769 6.35886C732.443 3.27161 739.63 1.49998 748.877 1.49998V-0.500015C739.373 -0.500015 731.842 1.32211 725.813 4.60204C719.78 7.88437 715.315 12.5927 711.896 18.265C705.092 29.5505 702.383 44.7555 699.642 60.3267L701.612 60.6733ZM748.877 1.49998C755.732 1.49998 761.065 2.47469 765.148 4.45089C769.203 6.41351 772.08 9.38928 774.002 13.5159C775.937 17.6708 776.918 23.0258 777.092 29.7407C777.266 36.4502 776.633 44.4538 775.386 53.8687L777.368 54.1313C778.621 44.6712 779.269 36.5498 779.091 29.6889C778.914 22.8335 777.911 17.1729 775.815 12.6716C773.705 8.14194 770.504 4.82084 766.02 2.65065C761.564 0.494026 755.897 -0.500015 748.877 -0.500015V1.49998ZM776.377 53H751.377V55H776.377V53ZM752.368 54.1363C754.239 40.5387 754.77 31.9983 753.765 26.8399C753.257 24.2335 752.331 22.3457 750.852 21.1299C749.371 19.9122 747.495 19.5 745.377 19.5V21.5C747.259 21.5 748.602 21.869 749.582 22.6748C750.564 23.4824 751.341 24.8602 751.802 27.2226C752.733 32.0017 752.265 40.2113 750.386 53.8637L752.368 54.1363ZM745.377 19.5C742.112 19.5 739.425 20.4067 737.193 22.2528C734.985 24.0781 733.297 26.7602 731.89 30.1822C729.089 36.9928 727.259 47.1221 724.893 60.3236L726.861 60.6764C729.245 47.3779 731.04 37.5072 733.739 30.9428C735.082 27.6772 736.612 25.3282 738.467 23.7941C740.297 22.2808 742.517 21.5 745.377 21.5V19.5ZM724.892 60.3284C723.161 70.2621 725.209 76.9529 729.178 82.2518C733.071 87.449 738.822 91.282 744.197 95.5051C749.63 99.7743 754.833 104.535 758.083 111.713C761.329 118.883 762.68 128.588 760.142 142.825L762.111 143.175C764.699 128.662 763.362 118.523 759.905 110.888C756.452 103.262 750.936 98.2569 745.432 93.9324C739.87 89.5617 734.464 85.9728 730.779 81.0528C727.17 76.2346 725.218 70.1129 726.862 60.6716L724.892 60.3284ZM760.141 142.831C757.131 160.391 754.403 175.806 747.8 186.862C744.518 192.357 740.292 196.747 734.606 199.774C728.914 202.803 721.694 204.5 712.377 204.5V206.5C721.935 206.5 729.496 204.759 735.546 201.539C741.603 198.315 746.08 193.643 749.517 187.888C756.351 176.444 759.123 160.609 762.113 143.169L760.141 142.831ZM712.377 204.5C705.211 204.5 699.726 203.432 695.607 201.203C691.521 198.992 688.694 195.594 686.909 190.748C685.111 185.869 684.37 179.518 684.513 171.451C684.657 163.393 685.681 153.692 687.366 142.144L685.387 141.856C683.698 153.433 682.659 163.232 682.514 171.416C682.368 179.591 683.111 186.225 685.032 191.439C686.966 196.687 690.092 200.493 694.655 202.962C699.184 205.412 705.043 206.5 712.377 206.5V204.5Z" fill="white" mask="url(#path-1-outside-1_177_966)"/>
</g>
</svg>
