<svg width="536" height="132" viewBox="0 0 536 132" fill="none" xmlns="http://www.w3.org/2000/svg">
<path d="M12.5563 62.64C20.3963 18 23.5963 0.39999 45.9963 0.39999C62.4763 0.39999 65.1963 10.48 61.9963 34.64H47.1163C49.5163 17.2 48.5563 13.2 43.7563 13.2C36.3963 13.2 34.9563 21.04 27.5963 62.64C19.4363 108.88 18.3163 115.6 25.6763 115.6C30.9563 115.6 33.1963 111.6 37.1963 90.96H52.2363C45.9963 120.56 40.0763 131.6 22.7963 131.6C0.39625 131.6 3.59625 113.84 12.5563 62.64ZM60.535 130L83.095 2H109.015C125.495 2 129.335 12.08 125.975 31.44C122.775 48.88 118.935 58.8 113.175 63.6L113.015 64.56C116.855 66 116.855 73.52 115.255 92.24L111.735 130H95.735L100.375 92.24C102.615 73.2 100.375 69.2 95.575 69.2H87.255L76.535 130H60.535ZM89.495 56.4H99.415C105.015 56.4 107.575 50.8 111.095 31.44C113.175 18.8 111.575 14.8 106.775 14.8H96.855L89.495 56.4ZM128.597 130L151.158 2H187.958L185.718 14.8H164.918L157.558 56.4H175.158L172.918 69.2H155.318L147.478 114H168.278L165.398 130H128.597ZM180.566 130L192.406 62.8C200.246 18.16 203.446 0.559998 227.446 0.559998C251.446 0.559998 248.246 18.16 240.406 62.8L228.566 130H212.566L219.126 93.2H203.126L196.566 130H180.566ZM205.366 80.4H221.366L224.406 62.8C231.766 21.2 233.046 13.36 225.046 13.36C217.046 13.36 215.766 21.2 208.406 62.8L205.366 80.4ZM258.229 130L278.229 16.4H262.229L264.789 2H312.789L310.229 16.4H294.229L274.229 130H258.229ZM303.879 130L326.439 2H342.439L319.879 130H303.879ZM352.71 130L357.67 2H374.47L367.43 96.4H369.03L395.27 2H412.07L371.91 130H352.71ZM414.931 62.64C422.771 18 426.931 0.39999 450.931 0.39999C474.931 0.39999 472.691 18 464.851 62.64C455.891 113.84 451.731 131.6 427.731 131.6C403.731 131.6 405.971 113.84 414.931 62.64ZM430.611 115.6C439.571 115.6 440.691 108.88 448.851 62.64C456.211 21.04 457.651 13.2 448.691 13.2C439.731 13.2 438.291 21.04 430.931 62.64C422.771 108.88 421.651 115.6 430.611 115.6ZM475.027 90.96H491.188C487.828 111.6 488.788 115.6 494.548 115.6C502.388 115.6 503.508 109.04 506.548 91.6C511.028 66 478.228 72.88 484.148 38.8C487.668 18.8 491.028 0.39999 515.028 0.39999C532.788 0.39999 535.828 10.48 532.628 34.64H516.628C519.028 17.2 517.908 13.2 512.788 13.2C504.948 13.2 503.348 21.84 500.308 38.8C495.988 63.6 529.428 54.8 522.868 91.6C519.028 114 515.828 131.6 491.668 131.6C473.107 131.6 470.707 120.56 475.027 90.96Z" fill="url(#paint0_linear_67_752)"/>
<defs>
<linearGradient id="paint0_linear_67_752" x1="6" y1="4" x2="539.451" y2="86.0648" gradientUnits="userSpaceOnUse">
<stop stop-color="white"/>
<stop offset="0.585" stop-color="#D1ACFC"/>
<stop offset="1" stop-color="#9D51F9"/>
</linearGradient>
</defs>
</svg>
