<svg width="536" height="132" viewBox="0 0 536 132" fill="none" xmlns="http://www.w3.org/2000/svg">
<mask id="path-1-outside-1_67_754" maskUnits="userSpaceOnUse" x="4" y="-1" width="531" height="134" fill="black">
<rect fill="white" x="4" y="-1" width="531" height="134"/>
<path d="M12.5563 62.64C20.3963 18 23.5963 0.39999 45.9963 0.39999C62.4763 0.39999 65.1963 10.48 61.9963 34.64H47.1163C49.5163 17.2 48.5563 13.2 43.7563 13.2C36.3963 13.2 34.9563 21.04 27.5963 62.64C19.4363 108.88 18.3163 115.6 25.6763 115.6C30.9563 115.6 33.1963 111.6 37.1963 90.96H52.2363C45.9963 120.56 40.0763 131.6 22.7963 131.6C0.39625 131.6 3.59625 113.84 12.5563 62.64ZM60.535 130L83.095 2H109.015C125.495 2 129.335 12.08 125.975 31.44C122.775 48.88 118.935 58.8 113.175 63.6L113.015 64.56C116.855 66 116.855 73.52 115.255 92.24L111.735 130H95.735L100.375 92.24C102.615 73.2 100.375 69.2 95.575 69.2H87.255L76.535 130H60.535ZM89.495 56.4H99.415C105.015 56.4 107.575 50.8 111.095 31.44C113.175 18.8 111.575 14.8 106.775 14.8H96.855L89.495 56.4ZM128.597 130L151.158 2H187.958L185.718 14.8H164.918L157.558 56.4H175.158L172.918 69.2H155.318L147.478 114H168.278L165.398 130H128.597ZM180.566 130L192.406 62.8C200.246 18.16 203.446 0.559998 227.446 0.559998C251.446 0.559998 248.246 18.16 240.406 62.8L228.566 130H212.566L219.126 93.2H203.126L196.566 130H180.566ZM205.366 80.4H221.366L224.406 62.8C231.766 21.2 233.046 13.36 225.046 13.36C217.046 13.36 215.766 21.2 208.406 62.8L205.366 80.4ZM258.229 130L278.229 16.4H262.229L264.789 2H312.789L310.229 16.4H294.229L274.229 130H258.229ZM303.879 130L326.439 2H342.439L319.879 130H303.879ZM352.71 130L357.67 2H374.47L367.43 96.4H369.03L395.27 2H412.07L371.91 130H352.71ZM414.931 62.64C422.771 18 426.931 0.39999 450.931 0.39999C474.931 0.39999 472.691 18 464.851 62.64C455.891 113.84 451.731 131.6 427.731 131.6C403.731 131.6 405.971 113.84 414.931 62.64ZM430.611 115.6C439.571 115.6 440.691 108.88 448.851 62.64C456.211 21.04 457.651 13.2 448.691 13.2C439.731 13.2 438.291 21.04 430.931 62.64C422.771 108.88 421.651 115.6 430.611 115.6ZM475.027 90.96H491.188C487.828 111.6 488.788 115.6 494.548 115.6C502.388 115.6 503.508 109.04 506.548 91.6C511.028 66 478.228 72.88 484.148 38.8C487.668 18.8 491.028 0.39999 515.028 0.39999C532.788 0.39999 535.828 10.48 532.628 34.64H516.628C519.028 17.2 517.908 13.2 512.788 13.2C504.948 13.2 503.348 21.84 500.308 38.8C495.988 63.6 529.428 54.8 522.868 91.6C519.028 114 515.828 131.6 491.668 131.6C473.107 131.6 470.707 120.56 475.027 90.96Z"/>
</mask>
<path d="M12.5563 62.64L11.5713 62.467L11.5712 62.4676L12.5563 62.64ZM61.9963 34.64V35.64H62.8725L62.9876 34.7713L61.9963 34.64ZM47.1163 34.64L46.1256 34.5037L45.9692 35.64H47.1163V34.64ZM27.5963 62.64L26.6115 62.4658L26.6115 62.4662L27.5963 62.64ZM37.1963 90.96V89.96H36.3714L36.2145 90.7697L37.1963 90.96ZM52.2363 90.96L53.2147 91.1663L53.469 89.96H52.2363V90.96ZM13.5412 62.813C17.4724 40.4289 20.2126 25.03 24.7251 15.1971C26.9659 10.3142 29.6067 6.89512 32.9729 4.68321C36.3361 2.47328 40.5275 1.39999 45.9963 1.39999V-0.60001C40.265 -0.60001 35.6565 0.526701 31.8746 3.01177C28.0958 5.49486 25.2466 9.26575 22.9074 14.3629C18.2599 24.49 15.4801 40.2111 11.5713 62.467L13.5412 62.813ZM45.9963 1.39999C50.0263 1.39999 53.1075 2.01821 55.4344 3.23815C57.7342 4.44389 59.3672 6.27361 60.4551 8.84909C61.5547 11.4525 62.1023 14.8332 62.1639 19.1119C62.2253 23.3842 61.8021 28.4896 61.0049 34.5087L62.9876 34.7713C63.7904 28.7104 64.2272 23.4958 64.1636 19.0831C64.1002 14.6768 63.5378 11.0075 62.2974 8.0709C61.0453 5.10637 59.1083 2.90609 56.3631 1.46683C53.645 0.0417676 50.2062 -0.60001 45.9963 -0.60001V1.39999ZM61.9963 33.64H47.1163V35.64H61.9963V33.64ZM48.1069 34.7763C49.3032 26.0833 49.6922 20.5694 49.1221 17.2126C48.8338 15.5146 48.2768 14.2122 47.3086 13.3505C46.327 12.4769 45.086 12.2 43.7563 12.2V14.2C44.8265 14.2 45.5055 14.4231 45.9789 14.8445C46.4657 15.2778 46.8987 16.0654 47.1504 17.5474C47.6603 20.5506 47.3293 25.7567 46.1256 34.5037L48.1069 34.7763ZM43.7563 12.2C41.6983 12.2 39.9398 12.7656 38.4282 14.3948C36.9828 15.9527 35.8299 18.4153 34.7204 22.0263C32.4972 29.2615 30.2848 41.7037 26.6115 62.4658L28.581 62.8142C32.2677 41.9763 34.4553 29.6984 36.6321 22.6137C37.7226 19.0646 38.7697 16.9673 39.8943 15.7551C40.9527 14.6144 42.1342 14.2 43.7563 14.2V12.2ZM26.6115 62.4662C22.5387 85.5454 20.2016 98.8696 19.8175 106.409C19.6275 110.139 19.8933 112.702 20.8637 114.338C21.932 116.138 23.6916 116.6 25.6763 116.6V114.6C23.9809 114.6 23.1205 114.222 22.5838 113.317C21.9492 112.248 21.625 110.241 21.815 106.511C22.1909 99.1304 24.4938 85.9746 28.581 62.8138L26.6115 62.4662ZM25.6763 116.6C27.1294 116.6 28.4769 116.322 29.7076 115.477C30.9204 114.643 31.9165 113.329 32.8176 111.453C34.6028 107.737 36.1823 101.448 38.178 91.1503L36.2145 90.7697C34.2102 101.112 32.6697 107.143 31.0149 110.587C30.196 112.291 29.3921 113.267 28.5749 113.828C27.7756 114.378 26.8631 114.6 25.6763 114.6V116.6ZM37.1963 91.96H52.2363V89.96H37.1963V91.96ZM51.2578 90.7537C48.135 105.567 45.1246 115.54 40.8309 121.815C38.7029 124.926 36.274 127.103 33.3718 128.513C30.4619 129.927 27.0114 130.6 22.7963 130.6V132.6C27.2211 132.6 30.9906 131.893 34.2457 130.312C37.5085 128.727 40.1896 126.294 42.4816 122.945C47.0279 116.3 50.0975 105.953 53.2147 91.1663L51.2578 90.7537ZM22.7963 130.6C17.3028 130.6 13.6016 129.507 11.1591 127.285C8.72 125.067 7.34387 121.547 6.91297 116.239C6.48222 110.933 7.00877 104.003 8.21706 95.1502C9.42394 86.3081 11.3 75.6195 13.5413 62.8124L11.5712 62.4676C9.33246 75.2605 7.44856 85.9919 6.23544 94.8798C5.02373 103.757 4.47028 110.867 4.91953 116.401C5.36863 121.933 6.8325 126.053 9.81337 128.765C12.7909 131.473 17.0897 132.6 22.7963 132.6V130.6ZM60.535 130L59.5502 129.826L59.3433 131H60.535V130ZM83.095 2V0.999998H82.2558L82.1102 1.82642L83.095 2ZM125.975 31.44L126.959 31.6205L126.96 31.611L125.975 31.44ZM113.175 63.6L112.535 62.8318L112.25 63.0694L112.189 63.4356L113.175 63.6ZM113.015 64.56L112.029 64.3956L111.893 65.2074L112.664 65.4963L113.015 64.56ZM115.255 92.24L116.251 92.3328L116.251 92.3252L115.255 92.24ZM111.735 130V131H112.646L112.731 130.093L111.735 130ZM95.735 130L94.7425 129.878L94.6046 131H95.735V130ZM100.375 92.24L101.368 92.362L101.368 92.3568L100.375 92.24ZM87.255 69.2V68.2H86.4159L86.2702 69.0264L87.255 69.2ZM76.535 130V131H77.3741L77.5198 130.174L76.535 130ZM89.495 56.4L88.5103 56.2258L88.3025 57.4H89.495V56.4ZM111.095 31.44L112.079 31.6189L112.08 31.6106L112.082 31.6024L111.095 31.44ZM96.855 14.8V13.8H96.0164L95.8703 14.6258L96.855 14.8ZM61.5198 130.174L84.0798 2.17357L82.1102 1.82642L59.5502 129.826L61.5198 130.174ZM83.095 3H109.015V0.999998H83.095V3ZM109.015 3C117.051 3 121.689 5.43993 124.05 9.92574C126.484 14.5501 126.665 21.617 124.99 31.269L126.96 31.611C128.645 21.903 128.586 14.2499 125.82 8.99425C122.981 3.60006 117.459 0.999998 109.015 0.999998V3ZM124.991 31.2595C123.397 39.9516 121.651 46.7194 119.605 51.8923C117.559 57.067 115.239 60.5787 112.535 62.8318L113.815 64.3682C116.871 61.8213 119.351 57.973 121.465 52.6277C123.579 47.2806 125.353 40.3684 126.959 31.6205L124.991 31.2595ZM112.189 63.4356L112.029 64.3956L114.001 64.7244L114.161 63.7644L112.189 63.4356ZM112.664 65.4963C113.312 65.7392 113.857 66.2428 114.291 67.2544C114.739 68.299 115.04 69.8255 115.177 71.9835C115.451 76.2961 115.06 82.7803 114.259 92.1548L116.251 92.3252C117.05 82.9796 117.459 76.3439 117.173 71.8565C117.03 69.6145 116.711 67.821 116.129 66.4656C115.533 65.0772 114.638 64.1008 113.366 63.6237L112.664 65.4963ZM114.259 92.1472L110.739 129.907L112.731 130.093L116.251 92.3328L114.259 92.1472ZM111.735 129H95.735V131H111.735V129ZM96.7275 130.122L101.368 92.362L99.3825 92.118L94.7425 129.878L96.7275 130.122ZM101.368 92.3568C102.488 82.8414 102.515 76.9099 101.583 73.328C101.11 71.5125 100.364 70.1916 99.2855 69.3383C98.2 68.4794 96.9115 68.2 95.575 68.2V70.2C96.6385 70.2 97.43 70.4205 98.0445 70.9067C98.666 71.3984 99.2399 72.2675 99.6473 73.832C100.475 77.0101 100.502 82.5986 99.3819 92.1232L101.368 92.3568ZM95.575 68.2H87.255V70.2H95.575V68.2ZM86.2702 69.0264L75.5502 129.826L77.5198 130.174L88.2398 69.3736L86.2702 69.0264ZM76.535 129H60.535V131H76.535V129ZM89.495 57.4H99.415V55.4H89.495V57.4ZM99.415 57.4C100.999 57.4 102.432 56.9978 103.715 56.017C104.974 55.0546 106.015 53.5915 106.941 51.6024C108.784 47.6489 110.321 41.2854 112.079 31.6189L110.111 31.2611C108.349 40.9546 106.846 47.0711 105.129 50.7576C104.275 52.5885 103.406 53.7354 102.5 54.428C101.618 55.1022 100.631 55.4 99.415 55.4V57.4ZM112.082 31.6024C113.122 25.2807 113.284 20.9206 112.476 18.1043C112.063 16.6623 111.374 15.5496 110.353 14.8119C109.337 14.0782 108.109 13.8 106.775 13.8V15.8C107.841 15.8 108.613 16.0218 109.182 16.4331C109.746 16.8404 110.227 17.5177 110.554 18.6557C111.226 20.9994 111.148 24.9593 110.108 31.2776L112.082 31.6024ZM106.775 13.8H96.855V15.8H106.775V13.8ZM95.8703 14.6258L88.5103 56.2258L90.4797 56.5742L97.8397 14.9742L95.8703 14.6258ZM128.597 130L127.613 129.826L127.406 131H128.597V130ZM151.158 2V0.999998H150.318L150.173 1.82642L151.158 2ZM187.958 2L188.943 2.17238L189.148 0.999998H187.958V2ZM185.718 14.8V15.8H186.558L186.703 14.9724L185.718 14.8ZM164.918 14.8V13.8H164.079L163.933 14.6258L164.918 14.8ZM157.558 56.4L156.573 56.2258L156.365 57.4H157.558V56.4ZM175.158 56.4L176.143 56.5724L176.348 55.4H175.158V56.4ZM172.918 69.2V70.2H173.758L173.903 69.3724L172.918 69.2ZM155.318 69.2V68.2H154.477L154.332 69.0276L155.318 69.2ZM147.478 114L146.492 113.828L146.287 115H147.478V114ZM168.278 114L169.262 114.177L169.474 113H168.278V114ZM165.398 130V131H166.234L166.382 130.177L165.398 130ZM129.582 130.174L152.142 2.17357L150.173 1.82642L127.613 129.826L129.582 130.174ZM151.158 3H187.958V0.999998H151.158V3ZM186.972 1.82762L184.732 14.6276L186.703 14.9724L188.943 2.17238L186.972 1.82762ZM185.718 13.8H164.918V15.8H185.718V13.8ZM163.933 14.6258L156.573 56.2258L158.542 56.5742L165.902 14.9742L163.933 14.6258ZM157.558 57.4H175.158V55.4H157.558V57.4ZM174.172 56.2276L171.932 69.0276L173.903 69.3724L176.143 56.5724L174.172 56.2276ZM172.918 68.2H155.318V70.2H172.918V68.2ZM154.332 69.0276L146.492 113.828L148.463 114.172L156.303 69.3724L154.332 69.0276ZM147.478 115H168.278V113H147.478V115ZM167.293 113.823L164.413 129.823L166.382 130.177L169.262 114.177L167.293 113.823ZM165.398 129H128.597V131H165.398V129ZM180.566 130L179.581 129.826L179.375 131H180.566V130ZM192.406 62.8L193.391 62.9735L193.391 62.973L192.406 62.8ZM240.406 62.8L241.391 62.9735L241.391 62.973L240.406 62.8ZM228.566 130V131H229.405L229.551 130.174L228.566 130ZM212.566 130L211.582 129.825L211.372 131H212.566V130ZM219.126 93.2L220.111 93.3755L220.32 92.2H219.126V93.2ZM203.126 93.2V92.2H202.289L202.142 93.0245L203.126 93.2ZM196.566 130V131H197.404L197.551 130.175L196.566 130ZM205.366 80.4L204.381 80.2298L204.179 81.4H205.366V80.4ZM221.366 80.4V81.4H222.208L222.352 80.5702L221.366 80.4ZM224.406 62.8L223.422 62.6258L223.421 62.6298L224.406 62.8ZM208.406 62.8L207.422 62.6258L207.421 62.6298L208.406 62.8ZM181.551 130.174L193.391 62.9735L191.421 62.6265L179.581 129.826L181.551 130.174ZM193.391 62.973C197.323 40.5851 200.063 25.1966 204.768 15.372C207.103 10.4977 209.886 7.07619 213.475 4.8581C217.066 2.63799 221.566 1.56 227.446 1.56V-0.440002C221.327 -0.440002 216.427 0.682005 212.423 3.1569C208.416 5.6338 205.41 9.40234 202.964 14.508C198.11 24.6433 195.329 40.3749 191.421 62.627L193.391 62.973ZM227.446 1.56C233.35 1.56 237.381 2.64719 240.076 4.79024C242.748 6.91401 244.281 10.2164 244.874 15.0613C245.468 19.9212 245.097 26.2031 244.072 34.114C243.048 42.0141 241.383 51.4587 239.421 62.627L241.391 62.973C243.35 51.8213 245.024 42.3259 246.055 34.371C247.085 26.4269 247.485 19.9388 246.859 14.8187C246.231 9.68363 244.555 5.79598 241.321 3.22476C238.111 0.672806 233.542 -0.440002 227.446 -0.440002V1.56ZM239.421 62.6265L227.581 129.826L229.551 130.174L241.391 62.9735L239.421 62.6265ZM228.566 129H212.566V131H228.566V129ZM213.551 130.175L220.111 93.3755L218.142 93.0245L211.582 129.825L213.551 130.175ZM219.126 92.2H203.126V94.2H219.126V92.2ZM202.142 93.0245L195.582 129.825L197.551 130.175L204.111 93.3755L202.142 93.0245ZM196.566 129H180.566V131H196.566V129ZM205.366 81.4H221.366V79.4H205.366V81.4ZM222.352 80.5702L225.392 62.9702L223.421 62.6298L220.381 80.2298L222.352 80.5702ZM225.391 62.9742C229.063 42.2186 231.243 29.7642 231.486 22.5135C231.606 18.9177 231.267 16.3592 230.198 14.6944C229.044 12.8986 227.206 12.36 225.046 12.36V14.36C226.887 14.36 227.889 14.8014 228.515 15.7756C229.225 16.8808 229.606 18.8823 229.487 22.4465C229.25 29.5157 227.109 41.7814 223.422 62.6258L225.391 62.9742ZM225.046 12.36C222.853 12.36 220.988 12.91 219.393 14.5344C217.86 16.0952 216.663 18.5658 215.532 22.1814C213.267 29.4202 211.094 41.8686 207.422 62.6258L209.391 62.9742C213.079 42.1314 215.225 29.8598 217.441 22.7786C218.549 19.2342 219.632 17.1448 220.82 15.9356C221.945 14.79 223.239 14.36 225.046 14.36V12.36ZM207.421 62.6298L204.381 80.2298L206.352 80.5702L209.392 62.9702L207.421 62.6298ZM258.229 130L257.244 129.827L257.037 131H258.229V130ZM278.229 16.4L279.214 16.5734L279.42 15.4H278.229V16.4ZM262.229 16.4L261.244 16.225L261.035 17.4H262.229V16.4ZM264.789 2V0.999998H263.951L263.804 1.82496L264.789 2ZM312.789 2L313.773 2.17503L313.982 0.999998H312.789V2ZM310.229 16.4V17.4H311.067L311.213 16.575L310.229 16.4ZM294.229 16.4V15.4H293.389L293.244 16.2266L294.229 16.4ZM274.229 130V131H275.068L275.214 130.173L274.229 130ZM259.214 130.173L279.214 16.5734L277.244 16.2266L257.244 129.827L259.214 130.173ZM278.229 15.4H262.229V17.4H278.229V15.4ZM263.213 16.575L265.773 2.17503L263.804 1.82496L261.244 16.225L263.213 16.575ZM264.789 3H312.789V0.999998H264.789V3ZM311.804 1.82496L309.244 16.225L311.213 16.575L313.773 2.17503L311.804 1.82496ZM310.229 15.4H294.229V17.4H310.229V15.4ZM293.244 16.2266L273.244 129.827L275.214 130.173L295.214 16.5734L293.244 16.2266ZM274.229 129H258.229V131H274.229V129ZM303.879 130L302.894 129.826L302.687 131H303.879V130ZM326.439 2V0.999998H325.6L325.454 1.82642L326.439 2ZM342.439 2L343.424 2.17357L343.63 0.999998H342.439V2ZM319.879 130V131H320.718L320.864 130.174L319.879 130ZM304.864 130.174L327.424 2.17357L325.454 1.82642L302.894 129.826L304.864 130.174ZM326.439 3H342.439V0.999998H326.439V3ZM341.454 1.82642L318.894 129.826L320.864 130.174L343.424 2.17357L341.454 1.82642ZM319.879 129H303.879V131H319.879V129ZM352.71 130L351.711 129.961L351.67 131H352.71V130ZM357.67 2V0.999998H356.708L356.671 1.96128L357.67 2ZM374.47 2L375.467 2.07437L375.547 0.999998H374.47V2ZM367.43 96.4L366.433 96.3256L366.353 97.4H367.43V96.4ZM369.03 96.4V97.4H369.79L369.993 96.6678L369.03 96.4ZM395.27 2V0.999998H394.51L394.307 1.73219L395.27 2ZM412.07 2L413.024 2.29936L413.432 0.999998H412.07V2ZM371.91 130V131H372.644L372.864 130.299L371.91 130ZM353.709 130.039L358.669 2.03872L356.671 1.96128L351.711 129.961L353.709 130.039ZM357.67 3H374.47V0.999998H357.67V3ZM373.473 1.92563L366.433 96.3256L368.427 96.4744L375.467 2.07437L373.473 1.92563ZM367.43 97.4H369.03V95.4H367.43V97.4ZM369.993 96.6678L396.233 2.26781L394.307 1.73219L368.067 96.1322L369.993 96.6678ZM395.27 3H412.07V0.999998H395.27V3ZM411.116 1.70064L370.956 129.701L372.864 130.299L413.024 2.29936L411.116 1.70064ZM371.91 129H352.71V131H371.91V129ZM414.931 62.64L413.946 62.467L413.946 62.4676L414.931 62.64ZM464.851 62.64L463.866 62.467L463.866 62.4676L464.851 62.64ZM448.851 62.64L447.867 62.4658L447.866 62.4662L448.851 62.64ZM430.931 62.64L429.947 62.4658L429.946 62.4662L430.931 62.64ZM415.916 62.813C419.846 40.4362 422.826 25.0478 427.765 15.2294C430.216 10.3558 433.118 6.92746 436.801 4.70352C440.487 2.47766 445.052 1.39999 450.931 1.39999V-0.60001C444.811 -0.60001 439.856 0.522324 435.767 2.99146C431.675 5.46252 428.546 9.22413 425.978 14.3306C420.877 24.4722 417.856 40.2037 413.946 62.467L415.916 62.813ZM450.931 1.39999C456.832 1.39999 460.932 2.4861 463.723 4.63922C466.489 6.77358 468.134 10.0864 468.842 14.9247C469.552 19.7804 469.301 26.0589 468.366 33.9651C467.432 41.8602 465.827 51.303 463.866 62.467L465.836 62.813C467.795 51.657 469.411 42.1598 470.352 34.1999C471.292 26.2511 471.57 19.7595 470.821 14.6352C470.069 9.4936 468.263 5.6164 464.945 3.05576C461.65 0.513885 457.03 -0.60001 450.931 -0.60001V1.39999ZM463.866 62.4676C459.376 88.1244 456.116 105.203 451.028 115.89C448.501 121.2 445.559 124.846 441.862 127.179C438.166 129.513 433.609 130.6 427.731 130.6V132.6C433.853 132.6 438.817 131.467 442.93 128.871C447.043 126.274 450.202 122.28 452.834 116.75C458.067 105.757 461.366 88.3556 465.836 62.8124L463.866 62.4676ZM427.731 130.6C421.829 130.6 417.744 129.503 414.978 127.25C412.231 125.011 410.607 121.483 409.964 116.199C409.319 110.905 409.676 103.985 410.769 95.1376C411.86 86.3016 413.676 75.6162 415.916 62.8124L413.946 62.4676C411.707 75.2638 409.882 85.9984 408.784 94.8924C407.687 103.775 407.303 110.895 407.979 116.441C408.655 121.997 410.412 126.109 413.715 128.8C416.999 131.477 421.633 132.6 427.731 132.6V130.6ZM430.611 116.6C432.984 116.6 435.018 116.152 436.765 114.569C438.458 113.034 439.759 110.54 440.982 106.769C443.43 99.2233 445.764 85.8869 449.836 62.8138L447.866 62.4662C443.778 85.6331 441.472 98.7767 439.08 106.151C437.884 109.84 436.714 111.916 435.422 113.086C434.184 114.208 432.718 114.6 430.611 114.6V116.6ZM449.836 62.8142C453.507 42.0657 455.729 29.6009 455.891 22.3423C455.972 18.7378 455.559 16.1587 454.339 14.4858C453.049 12.717 451.054 12.2 448.691 12.2V14.2C450.808 14.2 451.993 14.663 452.723 15.6642C453.523 16.7613 453.971 18.7422 453.892 22.2977C453.734 29.3591 451.556 41.6143 447.867 62.4658L449.836 62.8142ZM448.691 12.2C446.289 12.2 444.246 12.7325 442.495 14.338C440.795 15.8974 439.479 18.3745 438.263 22.0022C435.833 29.2522 433.618 41.7115 429.947 62.4658L431.916 62.8142C435.604 41.9685 437.79 29.7078 440.159 22.6378C441.343 19.1055 442.527 17.0226 443.847 15.8119C445.117 14.6475 446.613 14.2 448.691 14.2V12.2ZM429.946 62.4662C425.875 85.5361 423.534 98.8789 423.352 106.436C423.261 110.184 423.685 112.784 424.937 114.432C426.259 116.171 428.286 116.6 430.611 116.6V114.6C428.457 114.6 427.264 114.189 426.53 113.223C425.728 112.166 425.261 110.196 425.351 106.484C425.529 99.1211 427.827 85.9839 431.916 62.8138L429.946 62.4662ZM475.027 90.96V89.96H474.163L474.038 90.8156L475.027 90.96ZM491.188 90.96L492.175 91.1207L492.363 89.96H491.188V90.96ZM506.548 91.6L505.562 91.4276L505.562 91.4283L506.548 91.6ZM484.148 38.8L483.163 38.6267L483.162 38.6288L484.148 38.8ZM532.628 34.64V35.64H533.504L533.619 34.7713L532.628 34.64ZM516.628 34.64L515.637 34.5037L515.48 35.64H516.628V34.64ZM500.308 38.8L499.323 38.6236L499.322 38.6284L500.308 38.8ZM522.868 91.6L521.883 91.4245L521.882 91.431L522.868 91.6ZM475.027 91.96H491.188V89.96H475.027V91.96ZM490.2 90.7993C488.527 101.082 487.891 107.405 488.459 111.169C488.747 113.079 489.368 114.506 490.485 115.425C491.595 116.339 493.015 116.6 494.548 116.6V114.6C493.2 114.6 492.34 114.361 491.755 113.88C491.177 113.404 490.688 112.541 490.436 110.871C489.924 107.475 490.488 101.478 492.175 91.1207L490.2 90.7993ZM494.548 116.6C496.65 116.6 498.41 116.158 499.88 115.119C501.339 114.087 502.405 112.541 503.266 110.534C504.965 106.579 506.024 100.429 507.533 91.7717L505.562 91.4283C504.031 100.211 503.01 106.061 501.429 109.745C500.65 111.559 499.776 112.743 498.725 113.486C497.685 114.222 496.365 114.6 494.548 114.6V116.6ZM507.533 91.7724C508.693 85.1413 507.444 80.5045 504.934 76.7833C502.48 73.1448 498.829 70.4249 495.447 67.6112C492.014 64.7556 488.756 61.7364 486.682 57.3964C484.619 53.0771 483.68 47.3364 485.133 38.9711L483.162 38.6288C481.655 47.3036 482.596 53.4829 484.878 58.2586C487.149 63.0136 490.701 66.2644 494.168 69.1488C497.686 72.0751 501.025 74.5652 503.276 77.9017C505.471 81.1555 506.642 85.2587 505.562 91.4276L507.533 91.7724ZM485.132 38.9733C486.902 28.9194 488.6 19.5245 492.764 12.6163C494.828 9.19166 497.487 6.40466 501.05 4.4659C504.618 2.52474 509.156 1.39999 515.028 1.39999V-0.60001C508.899 -0.60001 504.017 0.575241 500.095 2.70908C496.168 4.84532 493.267 7.90832 491.051 11.5837C486.655 18.8755 484.913 28.6806 483.163 38.6267L485.132 38.9733ZM515.028 1.39999C519.385 1.39999 522.738 2.02032 525.284 3.25261C527.802 4.47132 529.585 6.31366 530.781 8.88216C531.99 11.479 532.615 14.8512 532.725 19.1234C532.836 23.3902 532.433 28.4913 531.636 34.5087L533.619 34.7713C534.422 28.7087 534.839 23.4898 534.725 19.0716C534.61 14.6588 533.965 10.981 532.594 8.03782C531.21 5.06632 529.103 2.87866 526.156 1.45237C523.237 0.0396581 519.55 -0.60001 515.028 -0.60001V1.39999ZM532.628 33.64H516.628V35.64H532.628V33.64ZM517.618 34.7763C518.814 26.0836 519.166 20.5583 518.509 17.1886C518.175 15.4766 517.556 14.1766 516.52 13.3251C515.482 12.4716 514.186 12.2 512.788 12.2V14.2C513.95 14.2 514.713 14.4284 515.25 14.8699C515.789 15.3134 516.26 16.1034 516.546 17.5714C517.129 20.5617 516.841 25.7563 515.637 34.5037L517.618 34.7763ZM512.788 12.2C510.625 12.2 508.821 12.803 507.32 14.0444C505.844 15.265 504.735 17.0415 503.823 19.2597C502.012 23.6628 500.834 30.1921 499.323 38.6236L501.292 38.9764C502.821 30.4479 503.963 24.1772 505.672 20.0203C506.52 17.9585 507.471 16.515 508.595 15.5856C509.694 14.677 511.03 14.2 512.788 14.2V12.2ZM499.322 38.6284C498.199 45.0746 499.527 49.4592 502.132 52.937C504.661 56.3131 508.404 58.8101 511.81 61.4863C515.274 64.2087 518.548 67.2118 520.592 71.725C522.631 76.2297 523.498 82.3633 521.883 91.4245L523.852 91.7755C525.517 82.4367 524.664 75.8703 522.413 70.9C520.167 65.9382 516.581 62.6913 513.045 59.9137C509.451 57.0899 506.054 54.8369 503.733 51.738C501.488 48.7408 500.256 44.9254 501.293 38.9716L499.322 38.6284ZM521.882 91.431C519.952 102.691 518.213 112.481 514.029 119.487C511.957 122.957 509.297 125.716 505.725 127.617C502.146 129.522 497.587 130.6 491.668 130.6V132.6C497.828 132.6 502.729 131.478 506.665 129.383C510.608 127.284 513.518 124.243 515.746 120.513C520.162 113.119 521.943 102.909 523.853 91.769L521.882 91.431ZM491.668 130.6C487.111 130.6 483.669 129.92 481.106 128.533C478.577 127.164 476.822 125.064 475.706 122.034C474.578 118.972 474.103 114.959 474.195 109.815C474.286 104.681 474.939 98.4891 476.017 91.1044L474.038 90.8156C472.956 98.2309 472.289 104.519 472.195 109.78C472.102 115.031 472.577 119.328 473.829 122.726C475.093 126.156 477.148 128.666 480.154 130.292C483.126 131.9 486.944 132.6 491.668 132.6V130.6Z" fill="url(#paint0_linear_67_754)" mask="url(#path-1-outside-1_67_754)"/>
<defs>
<linearGradient id="paint0_linear_67_754" x1="6" y1="6" x2="538.617" y2="90.6676" gradientUnits="userSpaceOnUse">
<stop stop-color="white"/>
<stop offset="0.585" stop-color="#D1ACFC"/>
<stop offset="1" stop-color="#9D51F9"/>
</linearGradient>
</defs>
</svg>
