<svg width="34" height="33" viewBox="0 0 34 33" fill="none" xmlns="http://www.w3.org/2000/svg">
<path d="M14.7308 16.8925C14.7308 17.9212 15.5647 18.7551 16.5934 18.7551C17.622 18.7551 18.4559 17.9212 18.4559 16.8925C18.4559 15.8639 17.622 15.03 16.5934 15.03C15.5647 15.03 14.7308 15.8639 14.7308 16.8925Z" fill="#9D51F9"/>
<path d="M17.0698 0.324856L20.1235 8.0781C20.3401 8.64118 20.2534 9.29089 19.8636 9.74569L17.9145 12.128C17.2431 12.9509 15.9653 12.9509 15.294 12.1063L13.4098 9.68072C13.0416 9.22592 12.955 8.59787 13.1715 8.05644L16.1169 0.324856C16.2902 -0.108286 16.8966 -0.108286 17.0698 0.324856Z" fill="#9D51F9"/>
<path d="M17.0265 32.6805L20.0801 24.9273C20.2967 24.3642 20.2101 23.7145 19.8203 23.2597L17.8711 20.8774C17.1998 20.0545 15.922 20.0545 15.2506 20.8991L13.3664 23.3247C12.9983 23.7795 12.9117 24.4075 13.1282 24.949L16.0736 32.6805C16.2252 33.1137 16.8532 33.1137 17.0265 32.6805Z" fill="#9D51F9"/>
<path d="M32.7929 16.9575L25.0396 20.0111C24.4766 20.2277 23.8268 20.1411 23.372 19.7513L20.9898 17.8021C20.1668 17.1308 20.1668 15.853 21.0114 15.1816L23.437 13.2974C23.8918 12.9293 24.5199 12.8427 25.0613 13.0592L32.7929 16.0046C33.226 16.1562 33.226 16.7842 32.7929 16.9575Z" fill="#9D51F9"/>
<path d="M0.458835 16.9142L8.21207 19.9679C8.77516 20.1845 9.42487 20.0978 9.87967 19.708L12.262 17.7589C13.0849 17.0875 13.0849 15.8097 12.2403 15.1383L9.81469 13.2542C9.35989 12.886 8.73184 12.7994 8.19041 13.016L0.458835 15.9613C0.00403581 16.1129 0.00403578 16.741 0.458835 16.9142Z" fill="#9D51F9"/>
</svg>
