<svg width="833" height="480" viewBox="0 0 833 480" fill="none" xmlns="http://www.w3.org/2000/svg">
<path d="M16 0H15V15H16V0Z" fill="#336F82"/>
<path d="M16 15H15V479H16V15Z" fill="#57C9E8"/>
<path d="M15 15H0V16H15V15Z" fill="#336F82"/>
<path d="M832 15H15V16H832V15Z" fill="#57C9E8"/>
<path d="M24 17C25.1046 17 26 16.1046 26 15C26 13.8954 25.1046 13 24 13C22.8954 13 22 13.8954 22 15C22 16.1046 22.8954 17 24 17Z" fill="#44ABE0"/>
<path d="M15 26C16.1046 26 17 25.1046 17 24C17 22.8954 16.1046 22 15 22C13.8954 22 13 22.8954 13 24C13 25.1046 13.8954 26 15 26Z" fill="#44ABE0"/>
<path d="M14.9999 19L10.9999 15L14.9999 11L18.9999 15L14.9999 19Z" fill="#44ABE0"/>
<path d="M818 465H817V480H818V465Z" fill="#336F82"/>
<path d="M818 15H817V465H818V15Z" fill="#57C9E8"/>
<path d="M833 464H818V465H833V464Z" fill="#336F82"/>
<path d="M818 464H1V465H818V464Z" fill="#57C9E8"/>
<path d="M808.5 466C809.328 466 810 465.328 810 464.5C810 463.672 809.328 463 808.5 463C807.672 463 807 463.672 807 464.5C807 465.328 807.672 466 808.5 466Z" fill="#44ABE0"/>
<path d="M818 458C819.105 458 820 457.105 820 456C820 454.895 819.105 454 818 454C816.895 454 816 454.895 816 456C816 457.105 816.895 458 818 458Z" fill="#44ABE0"/>
<path d="M833 15H818V16H833V15Z" fill="#336F82"/>
<path d="M818 0H817V15H818V0Z" fill="#336F82"/>
<path d="M818 26C819.105 26 820 25.1046 820 24C820 22.8954 819.105 22 818 22C816.895 22 816 22.8954 816 24C816 25.1046 816.895 26 818 26Z" fill="#44ABE0"/>
<path d="M809 17C810.105 17 811 16.1046 811 15C811 13.8954 810.105 13 809 13C807.895 13 807 13.8954 807 15C807 16.1046 807.895 17 809 17Z" fill="#44ABE0"/>
<path d="M814 15L818 11L822 15L818 19L814 15Z" fill="#44ABE0"/>
<path d="M814 465L818 461L822 465L818 469L814 465Z" fill="#44ABE0"/>
<path d="M15 464H0V465H15V464Z" fill="#336F82"/>
<path d="M16 465H15V479H16V465Z" fill="#336F82"/>
<path d="M15 458C16.1046 458 17 457.105 17 456C17 454.895 16.1046 454 15 454C13.8954 454 13 454.895 13 456C13 457.105 13.8954 458 15 458Z" fill="#44ABE0"/>
<path d="M24 467C25.1046 467 26 466.105 26 465C26 463.895 25.1046 463 24 463C22.8954 463 22 463.895 22 465C22 466.105 22.8954 467 24 467Z" fill="#44ABE0"/>
</svg>
