<svg width="72" height="70" viewBox="0 0 72 70" fill="none" xmlns="http://www.w3.org/2000/svg">
<path d="M29.1883 32.203L53.8113 16.0183C54.4762 15.5813 55.3605 16.0582 55.3605 16.854V19.6283V20.2431C55.3605 20.5813 55.1896 20.8966 54.9061 21.0812L39.4679 31.132L37.7275 32.2699L35.4326 33.7617L33.524 35.0023C33.5228 35.003 33.5234 35.0048 33.5247 35.0048V35.0048C33.5261 35.0048 33.5266 35.0066 33.5254 35.0073L33.4818 35.0335L29.8437 37.4257C29.5098 37.6452 29.0774 37.645 28.7438 37.4251L26.2681 35.7929C25.6682 35.3975 25.6687 34.5173 26.2691 34.1225L29.1883 32.203Z" fill="white"/>
<path d="M43.0715 35.7925C42.4709 35.3973 42.4711 34.5164 43.0719 34.1215L53.8113 27.0627C54.4762 26.6257 55.3605 27.1026 55.3605 27.8984V31.297C55.3605 31.6353 55.1895 31.9506 54.906 32.1351L46.71 37.4686C46.3768 37.6854 45.947 37.6843 45.6149 37.4658L43.0715 35.7925Z" fill="#9D51F9"/>
<path d="M37.5745 37.7397C37.5975 37.7225 37.6288 37.7215 37.6528 37.7373L37.9188 37.9118L41.9445 40.5702L55.3126 49.3935C55.3425 49.4132 55.3605 49.4467 55.3605 49.4825V49.4825V53.1416C55.3605 53.9383 54.4744 54.4151 53.8096 53.9761L37.6893 43.3338L33.6635 40.6754V40.6754C33.5291 40.5903 33.5276 40.3947 33.6606 40.3075L37.5745 37.7397V37.7397Z" fill="white"/>
<path d="M7.00367 43.1911L7.75817 43.1911L13.2492 43.1911L44.0157 68.7425L43.7642 69.0278L32.0695 59.3288L26.5785 59.3288L7.00367 43.1911Z" fill="white"/>
<path d="M7.00367 26.8496L7.75817 26.8496L13.2492 26.8496L44.0157 1.29825L43.7642 0.97223L32.0695 10.6712L26.5785 10.6712L7.00367 26.8496Z" fill="white"/>
<path d="M4.69389 30.6824L5.02168 30.9684L0.573734 34.8794L5.14447 38.7323L4.8576 39.0183L-5.16733e-06 34.8794L4.69389 30.6824Z" fill="white"/>
</svg>
