<svg id="line" height="512" viewBox="0 0 64 64" width="512" xmlns="http://www.w3.org/2000/svg"><g fill="#9D51F9"><path d="m43.17822 18.82178h-22.35644a2.002 2.002 0 0 0 -2 2v22.35644a2.002 2.002 0 0 0 2 2h22.35644a2.002 2.002 0 0 0 2-2v-22.35644a2.002 2.002 0 0 0 -2-2zm0 24.35644-22.35644.00147v-22.35791h22.35644z"/><path d="m57.2002 34.7998a2.8 2.8 0 0 0 -.0001-5.5996h-6.51065v-4.33106h6.51075a2.80024 2.80024 0 0 0 -.0001-5.60009h-6.51065v-1.9585a4.00458 4.00458 0 0 0 -4-4h-1.95845v-6.51075a2.80005 2.80005 0 0 0 -5.6001 0v6.51075h-4.3311v-6.51075a2.7998 2.7998 0 1 0 -5.5996 0v6.51075h-4.33106v-6.51075a2.80005 2.80005 0 0 0 -5.6001 0v6.51075h-1.95849a4.00458 4.00458 0 0 0 -4 4v1.95845h-6.51075a2.80023 2.80023 0 0 0 .0001 5.6001h6.51065v4.3311h-6.51075a2.8 2.8 0 0 0 .0001 5.5996h6.51065v4.33106h-6.51075a2.80024 2.80024 0 0 0 .0001 5.60014h6.51065v1.95849a4.00458 4.00458 0 0 0 4 4h1.95845v6.51071a2.80005 2.80005 0 0 0 5.6001 0v-6.51075h4.3311v6.51075a2.7998 2.7998 0 1 0 5.5996 0v-6.51075h4.33106v6.51075a2.80005 2.80005 0 0 0 5.6001 0v-6.51075h1.95849a4.00458 4.00458 0 0 0 4-4v-1.95845h6.51075a2.80023 2.80023 0 0 0 -.0001-5.6001h-6.51065v-4.3311zm0-3.5996a.8.8 0 0 1 -.00006 1.5996h-6.51069v-1.5996zm0-9.93116a.80021.80021 0 0 1 -.00006 1.6001h-6.51069v-1.60014zm-16.06934-14.46924a.80021.80021 0 0 1 1.60009.00006v6.51069h-1.6001zm-9.93066 0a.8.8 0 0 1 1.5996.00006v6.51069h-1.5996zm-9.93116 0a.80021.80021 0 0 1 1.6001.00006v6.51069h-1.60014zm-14.46924 16.06934a.80021.80021 0 0 1 .00006-1.60009h6.51069v1.6001zm0 9.93066a.8.8 0 0 1 .00006-1.5996h6.51069v1.5996zm0 9.93116a.80021.80021 0 0 1 .00006-1.6001h6.51069v1.60014zm16.06934 14.46924a.80021.80021 0 0 1 -1.60009-.00006v-6.51069h1.6001zm9.93066 0a.8.8 0 0 1 -1.5996-.00006v-6.51069h1.5996zm9.93116 0a.80021.80021 0 0 1 -1.6001-.00006v-6.51069h1.60014zm5.95849-10.51075a2.002 2.002 0 0 1 -2 2s-25.75775.0193-29.37887-.00006a2.00189 2.00189 0 0 1 -2-1.99994v-29.3789a2.002 2.002 0 0 1 2-2c5.02681-.00373 25.75775-.0193 29.37887.00006a2.00189 2.00189 0 0 1 2 1.99994s.00397 22.16568 0 29.3789zm8.51075-5.55859a.80021.80021 0 0 1 -.00006 1.60009h-6.51069v-1.6001z"/></g></svg>