<svg id="Line" enable-background="new 0 0 32 32" fill="#9D51F9" height="512" viewBox="0 0 32 32" width="512" xmlns="http://www.w3.org/2000/svg"><path id="XMLID_948_" d="m29 13.7c-.7-4.4-4.5-7.7-8.9-7.7h-8.1c-4.5 0-8.3 3.3-9 7.7-.7 4.7-1 6.8-1 7.6 0 4.9 6.7 6.5 8.9 2.1l1.7-3.4h6.8l1.7 3.4c2.2 4.4 8.9 2.8 8.9-2.1 0-.7 0 .2-1-7.6zm-1 7.6c0 2.8-3.9 3.8-5.1 1.2l-2-4c-.2-.3-.5-.5-.9-.5h-8c-.4 0-.7.2-.9.6l-2 4c-1.2 2.5-5.1 1.5-5.1-1.3l1-7.3c.5-3.4 3.5-6 6.9-6h8.1c3.5 0 6.4 2.6 6.9 6 .1.1 1.2 7.8 1.1 7.3z"/><path id="XMLID_82_" d="m14 13c0 .6-.4 1-1 1h-1v1c0 .6-.4 1-1 1s-1-.4-1-1v-1h-1c-.6 0-1-.4-1-1s.4-1 1-1h1v-1c0-.6.4-1 1-1s1 .4 1 1v1h1c.6 0 1 .4 1 1z"/><path id="XMLID_84_" d="m20 13c0 .6-.4 1-1 1s-1-.4-1-1 .4-1 1-1 1 .4 1 1z"/><path id="XMLID_85_" d="m22 15c0 .6-.4 1-1 1s-1-.4-1-1 .4-1 1-1 1 .4 1 1z"/><path id="XMLID_86_" d="m24 13c0 .6-.4 1-1 1s-1-.4-1-1 .4-1 1-1 1 .4 1 1z"/><path id="XMLID_87_" d="m20 11c0-.6.4-1 1-1s1 .4 1 1-.4 1-1 1-1-.4-1-1z"/></svg>