<svg width="36" height="68" viewBox="0 0 36 68" fill="none" xmlns="http://www.w3.org/2000/svg">
<path d="M0.333374 1.19312L0.99803 15.7475L8.92285 15.3823L0.333374 1.19312Z" fill="#9D51F9"/>
<path d="M34.6757 37.0271C34.1579 35.1191 33.4849 33.3141 32.5529 31.6123C31.621 29.9621 30.5337 28.4665 29.2393 27.1257C27.945 25.8365 26.547 24.702 24.9938 23.8253L34.831 12.5315V0H3.19653L11.4288 14.8521H14.7941L12.7231 17.2243L33.0189 53.6842C33.3295 52.9622 33.6402 52.2403 33.9509 51.5183C34.9346 48.8882 35.4006 46.1034 35.4006 43.1124C35.4523 40.998 35.1934 38.9868 34.6757 37.0271Z" fill="#9D51F9"/>
<path d="M25.2131 43.4246C25.368 44.0414 25.4712 44.7097 25.4712 45.4294C25.5228 47.3829 24.955 49.0278 23.8194 50.4158C22.6838 51.8038 21.2902 52.5235 19.6384 52.5235C17.9866 52.5749 16.5413 51.9066 15.3541 50.5701C14.1669 49.2335 13.5475 47.5885 13.4959 45.635L0.333374 45.8921C0.384992 48.9764 0.952793 51.9066 1.98515 54.6311C3.06912 57.3557 4.4628 59.669 6.21781 61.6738C7.97281 63.6272 10.0375 65.2208 12.3603 66.3518C14.7347 67.4827 17.2124 68.0482 19.8965 67.9968C22.529 67.9454 25.0066 67.3285 27.3294 66.0947C29.6006 64.861 31.6137 63.216 33.2655 61.2111C33.6784 60.6971 34.0913 60.1316 34.4527 59.5662L25.2131 43.4246Z" fill="#9D51F9"/>
<path d="M12.6647 20.9963L10.8316 23.1928L11.303 37.8016L19.7353 37.5462C21.2542 37.4951 22.6159 38.0059 23.7158 39.1297L12.6647 20.9963Z" fill="#9D51F9"/>
</svg>
