<svg width="49" height="76" viewBox="0 0 49 76" fill="none" xmlns="http://www.w3.org/2000/svg">
<g filter="url(#filter0_d_177_1843)">
<path d="M32.7635 51.0644H25.5378C27.2091 49.4678 28.782 47.8711 30.1583 46.2744L23.4733 34C23.1784 34.3493 22.9326 34.6486 22.6377 34.9979C20.6224 37.343 18.2138 39.7879 15.412 42.3326C12.561 44.8773 9.41517 47.422 5.97437 49.8669V65.3347L40.6282 65.3846L32.7635 51.0644Z" fill="#9D51F9"/>
<path d="M9.55196 9.15381C8.17025 11.0086 7.03528 13.0638 6.19638 15.4198C5.20944 18.1769 4.66663 21.0843 4.66663 24.1923H17.7435L9.55196 9.15381Z" fill="#9D51F9"/>
<path d="M40.6281 20.6374C40.5785 27.3681 36.9047 34.6884 29.6067 42.5L22.9046 30.365C24.5429 28.449 25.8337 26.6803 26.7769 25.0591C27.8691 23.1921 28.4649 21.62 28.4649 20.49C28.4649 18.7214 27.9684 17.1984 26.9259 15.9701C25.8833 14.7419 24.5925 14.1032 23.0535 14.1032C21.5145 14.1032 20.2237 14.6928 19.1315 15.921C18.0889 17.1492 17.5428 18.6722 17.4931 20.49H17.4435L9.89734 6.78294C10.0959 6.48816 10.3441 6.19338 10.5924 5.94773C12.2307 4.08082 14.1172 2.60694 16.252 1.57522C18.3868 0.494374 20.6705 -0.0460553 23.1528 0.00307412C25.5854 0.00307412 27.8691 0.592639 30.0039 1.67349C32.1387 2.75433 33.9756 4.27733 35.5642 6.14425C37.1529 8.01117 38.3941 10.222 39.2877 12.6785C40.1813 15.1349 40.6281 17.7879 40.6281 20.6374Z" fill="#9D51F9"/>
<path d="M44.5512 51.6538V68H44.1918L34.7435 51.6538H44.5512Z" fill="#9D51F9"/>
</g>
<defs>
<filter id="filter0_d_177_1843" x="0.666626" y="0" width="47.8846" height="76" filterUnits="userSpaceOnUse" color-interpolation-filters="sRGB">
<feFlood flood-opacity="0" result="BackgroundImageFix"/>
<feColorMatrix in="SourceAlpha" type="matrix" values="0 0 0 0 0 0 0 0 0 0 0 0 0 0 0 0 0 0 127 0" result="hardAlpha"/>
<feOffset dy="4"/>
<feGaussianBlur stdDeviation="2"/>
<feComposite in2="hardAlpha" operator="out"/>
<feColorMatrix type="matrix" values="0 0 0 0 0 0 0 0 0 0 0 0 0 0 0 0 0 0 0.25 0"/>
<feBlend mode="normal" in2="BackgroundImageFix" result="effect1_dropShadow_177_1843"/>
<feBlend mode="normal" in="SourceGraphic" in2="effect1_dropShadow_177_1843" result="shape"/>
</filter>
</defs>
</svg>
