<svg width="75" height="70" viewBox="0 0 75 70" fill="none" xmlns="http://www.w3.org/2000/svg">
<path d="M42.8117 32.203L18.1888 16.0183C17.5238 15.5813 16.6395 16.0582 16.6395 16.854V19.6283V20.2431C16.6395 20.5813 16.8105 20.8966 17.0939 21.0812L32.5322 31.132L34.2725 32.2699L36.5675 33.7617L38.4761 35.0023C38.4772 35.003 38.4767 35.0048 38.4753 35.0048V35.0048C38.474 35.0048 38.4735 35.0066 38.4746 35.0073L38.5182 35.0335L42.1564 37.4257C42.4902 37.6452 42.9227 37.645 43.2562 37.4251L45.732 35.7929C46.3318 35.3975 46.3313 34.5173 45.731 34.1225L42.8117 32.203Z" fill="white"/>
<path d="M28.9285 35.7925C29.5292 35.3973 29.529 34.5164 28.9282 34.1215L18.1888 27.0627C17.5238 26.6257 16.6395 27.1026 16.6395 27.8984V31.297C16.6395 31.6353 16.8106 31.9506 17.0941 32.1351L25.2901 37.4686C25.6232 37.6854 26.0531 37.6843 26.3851 37.4658L28.9285 35.7925Z" fill="#9D51F9"/>
<path d="M34.4255 37.7397C34.4026 37.7225 34.3713 37.7215 34.3473 37.7373L34.0813 37.9118L30.0555 40.5702L16.6874 49.3935C16.6575 49.4132 16.6395 49.4467 16.6395 49.4825V49.4825V53.1416C16.6395 53.9383 17.5256 54.4151 18.1905 53.9761L34.3108 43.3338L38.3365 40.6754V40.6754C38.4709 40.5903 38.4725 40.3947 38.3395 40.3075L34.4255 37.7397V37.7397Z" fill="white"/>
<path d="M67.012 43.1911L66.2575 43.1911L60.7665 43.1911L30 68.7425L30.2515 69.0278L41.9461 59.3288L47.4371 59.3288L67.012 43.1911Z" fill="white"/>
<path d="M67.012 26.8496L66.2575 26.8496L60.7665 26.8496L30 1.29825L30.2515 0.97223L41.9461 10.6712L47.4371 10.6712L67.012 26.8496Z" fill="white"/>
<path d="M69.3218 30.6824L68.994 30.9684L73.4419 34.8794L68.8712 38.7323L69.1581 39.0183L74.0157 34.8794L69.3218 30.6824Z" fill="white"/>
</svg>
