<?xml version="1.0" encoding="utf-8"?>
<!-- Generator: Adobe Illustrator 25.2.1, SVG Export Plug-In . SVG Version: 6.00 Build 0)  -->
<svg version="1.1" id="Capa_1" xmlns="http://www.w3.org/2000/svg" xmlns:xlink="http://www.w3.org/1999/xlink" x="0px" y="0px"
	 viewBox="0 0 150 64" style="enable-background:new 0 0 150 64;" xml:space="preserve">
<style type="text/css">
	.st0{fill-rule:evenodd;clip-rule:evenodd;fill:#FBC022;}
	.st1{fill-rule:evenodd;clip-rule:evenodd;fill:#7ABF2B;}
	.st2{fill-rule:evenodd;clip-rule:evenodd;fill:#E5007E;}
	.st3{fill-rule:evenodd;clip-rule:evenodd;fill:#C58114;}
	.st4{fill-rule:evenodd;clip-rule:evenodd;fill:#629B31;}
	.st5{fill-rule:evenodd;clip-rule:evenodd;fill:#C5265E;}
	.st6{fill-rule:evenodd;clip-rule:evenodd;fill:#0071DC;}
	.st7{fill:#616160;}
	.st8{fill:#0071DC;}
</style>
<g>
	<path class="st0" d="M32,26c2.1-3.7,6.3-6.2,10.9-5.9c1.6,0.1,3.1,0.5,4.5,1.2l3.3-3.3c1-1,1-2.7,0-3.7L38.5,2.3c-1-1-2.7-1-3.7,0
		L22.7,14.4c-1,1-1,2.7,0,3.7l7.9,7.9H32z"/>
	<path class="st1" d="M38.5,61.8l12.1-12.1c1-1,1-2.7,0-3.7l-3.6-3.6c-1.7,0.8-3.6,1.2-5.6,1c-4.1-0.3-7.5-2.6-9.4-5.9h-0.8L22.7,46
		c-1,1-1,2.7,0,3.7l12.1,12.1C35.8,62.8,37.5,62.8,38.5,61.8z"/>
	<path class="st2" d="M19,18.1L11.1,26h19.6l-7.9-7.9C21.7,17.1,20,17.1,19,18.1z M22.7,46l8.5-8.5H10.5L19,46
		C20,47,21.7,47,22.7,46z"/>
	<path class="st3" d="M32,26c2-3.5,5.8-5.8,10-5.9l-17.2,0l5.9,5.9H32z"/>
	<path class="st4" d="M41.3,43.4c-4.1-0.3-7.5-2.6-9.4-5.9h-0.8l-5.8,5.8l16.4,0C41.6,43.4,41.4,43.4,41.3,43.4z"/>
	<path class="st5" d="M16.9,20.1L11.1,26h19.6l-5.9-5.9L16.9,20.1z M31.1,37.5H10.5l5.8,5.8l9,0L31.1,37.5z"/>
	<path class="st6" d="M54.3,46l12.1-12.1c1-1,1-2.7,0-3.7L54.3,18.1c-1-1-2.7-1-3.7,0l-3.3,3.3c2.3,1.1,4.1,3,5.2,5.2l-10.1,0
		L41,29.1l-1.4,2.5l1.4,2.5l1.4,2.5l10.3,0c-1.2,2.6-3.2,4.6-5.7,5.8l3.6,3.6C51.6,47,53.2,47,54.3,46z"/>
	<polygon class="st5" points="16.2,22.8 14.7,26 4,26 	"/>
	<polygon class="st5" points="16.2,40.6 14.7,37.5 4,37.5 	"/>
</g>
<g>
	<path class="st7" d="M84.2,18.2c-0.3,1.4-0.8,2.4-1.6,3.2c-0.8,0.8-1.7,1.2-2.8,1.3l-0.7,0.1l2.6,8.5h-3.1l-2.1-8l-1.7,8h-2.9
		l3.8-17.7H80c1.4,0,2.5,0.3,3.2,0.9c0.7,0.6,1.1,1.4,1.1,2.5C84.3,17.4,84.3,17.8,84.2,18.2z M81.3,18.3c0.1-0.4,0.1-0.7,0.1-1
		c0-1.1-0.5-1.6-1.6-1.6H78l-1.2,5.6h1.6C79.9,21.3,80.9,20.3,81.3,18.3z"/>
	<path class="st7" d="M94.6,21.1c-0.3,1.4-1.2,2.5-2.5,3.2c-1.3,0.8-2.9,1.1-4.7,1.1c-0.2,0.7-0.2,1.4-0.2,1.9
		c0,1.6,0.7,2.3,2.2,2.3c1.1,0,2.1-0.4,3.1-1.1l-0.4,2.1c-0.3,0.2-0.8,0.4-1.5,0.6c-0.8,0.2-1.5,0.3-2.4,0.3c-1.3,0-2.2-0.3-2.8-1
		c-0.6-0.6-0.9-1.6-0.9-3c0-1,0.1-2.1,0.4-3.4c0.9-4.4,3.1-6.6,6.4-6.6c1.1,0,1.9,0.3,2.5,0.8s0.9,1.2,0.9,2
		C94.7,20.7,94.7,20.9,94.6,21.1z M92,21.1c0-0.2,0.1-0.3,0.1-0.4c0-0.8-0.4-1.2-1.1-1.2c-1.4,0-2.4,1.5-3,4.4
		c0.9,0,1.8-0.3,2.6-0.8C91.3,22.6,91.8,21.9,92,21.1z"/>
	<path class="st7" d="M111.8,22l-2,9.3h-2.8l1.7-8.3c0.1-0.6,0.2-1.2,0.2-1.8c0-1.1-0.4-1.7-1.3-1.7c-0.6,0-1.3,0.2-2.1,0.5
		c0.1,0.1,0.1,0.4,0.1,0.9c0,0.6,0,1-0.1,1.3l-1.9,9.1H101l1.8-8.3c0.1-0.6,0.2-1.2,0.2-1.8c0-1.1-0.4-1.6-1.3-1.6
		c-0.5,0-1,0.1-1.6,0.4l-2.4,11.3h-2.8l2.7-12.7c0.5-0.2,1.2-0.4,2.1-0.6c0.9-0.2,1.7-0.3,2.4-0.3c1.3,0,2.3,0.3,2.8,0.8
		c1.4-0.6,2.7-0.8,3.8-0.8c1.1,0,1.9,0.3,2.4,0.8c0.6,0.5,0.9,1.3,0.9,2.3C111.9,21.2,111.9,21.6,111.8,22z"/>
	<path class="st7" d="M123.3,24.3c-0.6,2.8-1.3,4.7-2.2,5.8c-0.9,1-2.3,1.5-4.1,1.5c-1.3,0-2.3-0.3-2.9-0.9s-0.9-1.5-0.9-2.8
		c0-0.8,0.1-2,0.5-3.7c0.5-2.3,1.2-4,2.1-5.1s2.3-1.6,4.1-1.6c1.3,0,2.2,0.3,2.8,0.9c0.6,0.6,0.9,1.6,0.9,2.8
		C123.7,22.2,123.5,23.2,123.3,24.3z M120.4,24.3c0.3-1.4,0.4-2.5,0.4-3.1c0-1.1-0.4-1.6-1.3-1.6c-0.7,0-1.3,0.4-1.7,1.1
		c-0.4,0.7-0.8,2-1.2,3.7c-0.4,1.8-0.5,3-0.5,3.8c0,0.6,0.1,1,0.3,1.3c0.2,0.3,0.5,0.4,1,0.4c0.7,0,1.3-0.4,1.8-1.2
		S120,26.3,120.4,24.3z"/>
	<path class="st7" d="M132.4,18l-0.4,1.9h-2.6l-1.6,7.7c-0.1,0.3-0.1,0.6-0.1,0.8c0,0.8,0.4,1.3,1.2,1.3c0.3,0,0.8-0.1,1.3-0.4
		l-0.4,1.9c-0.6,0.2-1.2,0.3-1.9,0.3c-2.1,0-3.1-0.8-3.1-2.3c0-0.3,0-0.6,0.1-1l2.9-13.5h2.8l-0.6,3.1H132.4z"/>
	<path class="st7" d="M142.3,24.3c-0.6,2.8-1.3,4.7-2.2,5.8c-0.9,1-2.3,1.5-4.1,1.5c-1.3,0-2.3-0.3-2.9-0.9s-0.9-1.5-0.9-2.8
		c0-0.8,0.1-2,0.5-3.7c0.5-2.3,1.2-4,2.1-5.1s2.3-1.6,4.1-1.6c1.3,0,2.2,0.3,2.8,0.9c0.6,0.6,0.9,1.6,0.9,2.8
		C142.7,22.2,142.5,23.2,142.3,24.3z M139.4,24.3c0.3-1.4,0.4-2.5,0.4-3.1c0-1.1-0.4-1.6-1.3-1.6c-0.7,0-1.3,0.4-1.7,1.1
		c-0.4,0.7-0.8,2-1.2,3.7c-0.4,1.8-0.5,3-0.5,3.8c0,0.6,0.1,1,0.3,1.3c0.2,0.3,0.5,0.4,1,0.4c0.7,0,1.3-0.4,1.8-1.2
		S139,26.3,139.4,24.3z"/>
</g>
<path class="st8" d="M82.1,33.9l-0.6,3c-0.6-0.5-1.2-0.7-1.8-0.7c-0.8,0-1.4,0.4-1.9,1.1c-0.4,0.6-0.7,1.7-1.1,3.2s-0.5,2.8-0.5,3.6
	c0,1.3,0.5,2,1.4,2c0.3,0,0.7-0.1,1.2-0.3c0.5-0.2,0.8-0.4,1-0.6l-0.7,3.1c-0.2,0.2-0.7,0.3-1.5,0.5s-1.5,0.2-2.2,0.2
	c-1.3,0-2.2-0.3-2.7-1c-0.5-0.6-0.8-1.6-0.8-2.9c0-1.1,0.2-2.5,0.6-4.4c0.5-2.5,1.3-4.4,2.3-5.7s2.4-1.9,4.2-1.9
	C80.5,33.1,81.5,33.4,82.1,33.9z"/>
<path class="st8" d="M89.3,37.1l-0.5,2.6c-0.2-0.1-0.5-0.2-0.9-0.2c-0.6,0-1.1,0.1-1.5,0.2l-1.9,9.1h-3.9l2.4-11.1
	c0.1,0,0.3-0.1,0.8-0.2c0.4-0.1,0.8-0.2,1.2-0.3s0.9-0.2,1.5-0.2c0.6-0.1,1.2-0.1,1.7-0.1C88.7,36.9,89.1,37,89.3,37.1z"/>
<path class="st8" d="M98.3,40.3c-0.2,1.1-0.9,2-2,2.7c-1.1,0.7-2.5,1.1-4.2,1.1c-0.1,0.2-0.1,0.5-0.1,0.8c0,0.5,0.1,1,0.4,1.2
	c0.3,0.3,0.8,0.4,1.6,0.4c0.9,0,1.8-0.3,2.6-1L96,48.3c-0.3,0.2-0.8,0.3-1.6,0.5c-0.7,0.2-1.5,0.2-2.3,0.2c-1.4,0-2.4-0.3-3-1
	c-0.6-0.6-0.9-1.6-0.9-2.9c0-0.8,0.1-1.6,0.3-2.5c0.8-3.9,2.8-5.8,6.2-5.8c1.2,0,2.1,0.2,2.7,0.7c0.6,0.5,0.9,1.1,0.9,2
	C98.4,39.8,98.4,40.1,98.3,40.3z M94.6,40.3c0-0.1,0-0.3,0-0.5c0-0.4-0.2-0.6-0.5-0.6c-0.6,0-1.1,0.9-1.5,2.7c0.5,0,0.9-0.2,1.3-0.5
	S94.5,40.7,94.6,40.3z"/>
<path class="st8" d="M109.6,37.7l-2.3,10.7c-0.4,0.2-1.1,0.3-2.1,0.5c-1,0.2-2,0.2-3,0.2c-1.3,0-2.3-0.3-2.9-0.9
	c-0.6-0.6-0.9-1.6-0.9-2.8c0-0.6,0.1-1.5,0.3-2.6c0.4-1.9,1.1-3.3,2.1-4.3s2.4-1.5,4.3-1.5c0.4,0,0.8,0,1.3,0.1
	c0.4,0,0.8,0.1,1.2,0.2c0.3,0.1,0.7,0.1,0.9,0.2c0.3,0.1,0.5,0.1,0.7,0.2S109.6,37.7,109.6,37.7z M105.3,39.6
	c-0.3-0.1-0.6-0.1-0.8-0.1c-0.3,0-0.7,0.3-0.9,0.9c-0.2,0.5-0.5,1.4-0.7,2.5s-0.4,2-0.4,2.6c0,0.8,0.2,1.2,0.5,1.2
	c0.4,0,0.7,0,0.9-0.1L105.3,39.6z"/>
<path class="st8" d="M117.9,37.2l-0.5,2.6h-2.2l-1.1,5.1c-0.1,0.2-0.1,0.4-0.1,0.7c0,0.3,0.1,0.6,0.2,0.8c0.2,0.2,0.4,0.2,0.8,0.2
	c0.1,0,0.3,0,0.6-0.1s0.5-0.2,0.6-0.2l-0.5,2.6c-0.2,0-0.5,0.1-1,0.2c-0.5,0.1-0.9,0.1-1.2,0.1c-1.3,0-2.3-0.2-2.8-0.6
	c-0.5-0.4-0.8-0.9-0.8-1.6c0-0.3,0-0.6,0.1-0.8l2.4-11.6h3.9l-0.6,2.7H117.9z"/>
<polygon class="st8" points="123.5,37.2 121.1,48.8 117.2,48.8 119.7,37.2 "/>
<polygon class="st8" points="124.6,32.5 123.9,35.4 120,35.4 120.6,32.5 "/>
<path class="st8" d="M135.1,37.2L130,48.8h-5.3l-0.1-11.6h3.9l-0.5,8.6l3.1-8.6H135.1z"/>
<path class="st8" d="M144.1,42.7c-0.5,2.5-1.2,4.2-2.1,5c-0.9,0.9-2.3,1.3-4.2,1.3c-1.4,0-2.4-0.3-3-0.8c-0.6-0.5-0.9-1.3-0.9-2.4
	c0-0.9,0.1-1.9,0.4-3.1c0.4-2.1,1.1-3.5,2-4.4c0.9-0.9,2.3-1.3,4.2-1.3c1.4,0,2.4,0.3,3,0.8c0.6,0.6,1,1.5,1,2.7
	C144.4,41.1,144.3,41.9,144.1,42.7z M140.1,42.7c0.2-1.2,0.4-2,0.4-2.4c0-0.6-0.2-0.9-0.6-0.9c-0.3,0-0.5,0.1-0.7,0.4
	s-0.3,0.7-0.5,1.3c-0.6,2.3-0.9,3.8-0.9,4.7c0,0.5,0.2,0.8,0.6,0.8c0.4,0,0.7-0.3,0.9-0.8S139.8,44.2,140.1,42.7z"/>
</svg>
