<?xml version="1.0" encoding="utf-8"?>
<!-- Generator: Adobe Illustrator 25.2.1, SVG Export Plug-In . SVG Version: 6.00 Build 0)  -->
<svg version="1.1" id="Capa_1" xmlns="http://www.w3.org/2000/svg" xmlns:xlink="http://www.w3.org/1999/xlink" x="0px" y="0px"
	 viewBox="0 0 75 39" style="enable-background:new 0 0 75 39;" xml:space="preserve">
<style type="text/css">
	.st0{fill:#969696;}
</style>
<g>
	<g>
		<path class="st0" d="M14.1,6.3c-0.3,1.4-0.8,2.4-1.6,3.2c-0.8,0.8-1.7,1.2-2.8,1.3L9,10.9l2.6,8.5H8.4l-2.1-8l-1.7,8H1.7L5.5,1.8
			h4.4c1.4,0,2.5,0.3,3.2,0.9s1.1,1.4,1.1,2.5C14.2,5.5,14.2,5.9,14.1,6.3z M11.2,6.4c0.1-0.4,0.1-0.7,0.1-1c0-1.1-0.5-1.6-1.6-1.6
			H7.8L6.6,9.4h1.6C9.8,9.4,10.8,8.4,11.2,6.4z"/>
		<path class="st0" d="M24.5,9.2c-0.3,1.4-1.2,2.5-2.5,3.2c-1.3,0.8-2.9,1.1-4.7,1.1c-0.2,0.7-0.2,1.4-0.2,1.9
			c0,1.6,0.7,2.3,2.2,2.3c1.1,0,2.1-0.4,3.1-1.1L22,18.9c-0.3,0.2-0.8,0.4-1.5,0.6c-0.8,0.2-1.5,0.3-2.4,0.3c-1.3,0-2.2-0.3-2.8-1
			c-0.6-0.6-0.9-1.6-0.9-3c0-1,0.1-2.1,0.4-3.4c0.9-4.4,3.1-6.6,6.4-6.6c1.1,0,1.9,0.3,2.5,0.8s0.9,1.2,0.9,2
			C24.6,8.8,24.6,9,24.5,9.2z M21.8,9.2c0-0.2,0.1-0.3,0.1-0.4c0-0.8-0.4-1.2-1.1-1.2c-1.4,0-2.4,1.5-3,4.4c0.9,0,1.8-0.3,2.6-0.8
			S21.7,10,21.8,9.2z"/>
		<path class="st0" d="M41.7,10.2l-2,9.3h-2.8l1.7-8.3c0.1-0.6,0.2-1.2,0.2-1.8c0-1.1-0.4-1.7-1.3-1.7c-0.6,0-1.3,0.2-2.1,0.5
			c0.1,0.1,0.1,0.4,0.1,0.9c0,0.6,0,1-0.1,1.3l-1.9,9.1h-2.8l1.8-8.3c0.1-0.6,0.2-1.2,0.2-1.8c0-1.1-0.4-1.6-1.3-1.6
			c-0.5,0-1,0.1-1.6,0.4l-2.4,11.3h-2.8l2.7-12.7c0.5-0.2,1.2-0.4,2.1-0.6s1.7-0.3,2.4-0.3c1.3,0,2.3,0.3,2.8,0.8
			c1.4-0.6,2.7-0.8,3.8-0.8s1.9,0.3,2.4,0.8C41.4,7.2,41.7,8,41.7,9C41.8,9.3,41.8,9.7,41.7,10.2z"/>
		<path class="st0" d="M53.2,12.4c-0.6,2.8-1.3,4.7-2.2,5.8c-0.9,1-2.3,1.5-4.1,1.5c-1.3,0-2.3-0.3-2.9-0.9s-0.9-1.5-0.9-2.8
			c0-0.8,0.1-2,0.5-3.7c0.5-2.3,1.2-4,2.1-5.1s2.3-1.6,4.1-1.6c1.3,0,2.2,0.3,2.8,0.9s0.9,1.6,0.9,2.8
			C53.5,10.4,53.4,11.3,53.2,12.4z M50.3,12.4c0.3-1.4,0.4-2.5,0.4-3.1c0-1.1-0.4-1.6-1.3-1.6c-0.7,0-1.3,0.4-1.7,1.1
			s-0.8,2-1.2,3.7c-0.4,1.8-0.5,3-0.5,3.8c0,0.6,0.1,1,0.3,1.3s0.5,0.4,1,0.4c0.7,0,1.3-0.4,1.8-1.2S49.9,14.4,50.3,12.4z"/>
		<path class="st0" d="M62.3,6.1L61.9,8h-2.6l-1.6,7.7c-0.1,0.3-0.1,0.6-0.1,0.8c0,0.8,0.4,1.3,1.2,1.3c0.3,0,0.8-0.1,1.3-0.4
			l-0.4,1.9c-0.6,0.2-1.2,0.3-1.9,0.3c-2.1,0-3.1-0.8-3.1-2.3c0-0.3,0-0.6,0.1-1L57.6,3h2.8l-0.6,3.1H62.3z"/>
		<path class="st0" d="M72.2,12.4c-0.6,2.8-1.3,4.7-2.2,5.8c-0.9,1-2.3,1.5-4.1,1.5c-1.3,0-2.3-0.3-2.9-0.9s-0.9-1.5-0.9-2.8
			c0-0.8,0.1-2,0.5-3.7c0.5-2.3,1.2-4,2.1-5.1c0.9-1.1,2.3-1.6,4.1-1.6c1.3,0,2.2,0.3,2.8,0.9c0.6,0.6,0.9,1.6,0.9,2.8
			C72.5,10.4,72.4,11.3,72.2,12.4z M69.3,12.4c0.3-1.4,0.4-2.5,0.4-3.1c0-1.1-0.4-1.6-1.3-1.6c-0.7,0-1.3,0.4-1.7,1.1
			c-0.4,0.7-0.8,2-1.2,3.7c-0.4,1.8-0.5,3-0.5,3.8c0,0.6,0.1,1,0.3,1.3c0.2,0.3,0.5,0.4,1,0.4c0.7,0,1.3-0.4,1.8-1.2
			S68.9,14.4,69.3,12.4z"/>
	</g>
</g>
<path class="st0" d="M12,22l-0.6,3c-0.6-0.5-1.2-0.7-1.8-0.7c-0.8,0-1.4,0.4-1.9,1.1C7.3,26,7,27.1,6.6,28.6S6,31.4,6,32.2
	c0,1.3,0.5,2,1.4,2c0.3,0,0.7-0.1,1.2-0.3s0.8-0.4,1-0.6L9,36.5c-0.2,0.2-0.7,0.3-1.5,0.5S6,37.2,5.3,37.2c-1.3,0-2.2-0.3-2.7-1
	c-0.5-0.6-0.8-1.6-0.8-2.9c0-1.1,0.2-2.5,0.6-4.4c0.5-2.5,1.3-4.4,2.3-5.7s2.4-1.9,4.2-1.9C10.4,21.3,11.4,21.5,12,22z"/>
<path class="st0" d="M19.2,25.3l-0.5,2.6c-0.2-0.1-0.5-0.2-0.9-0.2c-0.6,0-1.1,0.1-1.5,0.2L14.4,37h-3.9l2.4-11.1
	c0.1,0,0.3-0.1,0.8-0.2c0.4-0.1,0.8-0.2,1.2-0.3s0.9-0.2,1.5-0.2c0.6-0.1,1.2-0.1,1.7-0.1C18.6,25.1,18.9,25.1,19.2,25.3z"/>
<path class="st0" d="M28.2,28.4c-0.2,1.1-0.9,2-2,2.7s-2.5,1.1-4.2,1.1c0,0.3,0,0.5,0,0.8c0,0.5,0.1,1,0.4,1.2
	c0.3,0.3,0.8,0.4,1.6,0.4c0.9,0,1.8-0.3,2.6-1L26,36.3c-0.3,0.2-0.8,0.3-1.6,0.5C23.7,37,22.9,37,22.1,37c-1.4,0-2.4-0.3-3-1
	c-0.6-0.6-0.9-1.6-0.9-2.9c0-0.8,0.1-1.6,0.3-2.5c0.8-3.9,2.8-5.8,6.2-5.8c1.2,0,2.1,0.2,2.7,0.7s0.9,1.1,0.9,2
	C28.3,28,28.2,28.2,28.2,28.4z M24.5,28.4c0-0.1,0-0.3,0-0.5c0-0.4-0.2-0.6-0.5-0.6c-0.6,0-1.1,0.9-1.5,2.7c0.5,0,0.9-0.2,1.3-0.5
	S24.4,28.8,24.5,28.4z"/>
<path class="st0" d="M39.5,25.8l-2.3,10.7c-0.4,0.2-1.1,0.3-2.1,0.5s-2,0.2-3,0.2c-1.3,0-2.3-0.3-2.9-0.9c-0.6-0.6-0.9-1.6-0.9-2.8
	c0-0.6,0.1-1.5,0.3-2.6c0.4-1.9,1.1-3.3,2.1-4.3c1-1,2.4-1.5,4.3-1.5c0.4,0,0.8,0,1.3,0.1c0.4,0,0.8,0.1,1.2,0.2
	c0.3,0.1,0.7,0.1,0.9,0.2c0.3,0.1,0.5,0.1,0.7,0.2S39.5,25.8,39.5,25.8z M35.2,27.7c-0.3-0.1-0.6-0.1-0.8-0.1
	c-0.3,0-0.7,0.3-0.9,0.9C33.3,29,33,29.9,32.8,31c-0.2,1.1-0.4,2-0.4,2.6c0,0.8,0.2,1.2,0.5,1.2c0.4,0,0.7,0,0.9-0.1L35.2,27.7z"/>
<path class="st0" d="M47.8,25.3l-0.5,2.6H45L43.9,33c-0.1,0.2-0.1,0.4-0.1,0.7s0.1,0.6,0.2,0.8c0.2,0.2,0.4,0.2,0.8,0.2
	c0.1,0,0.3,0,0.6-0.1s0.5-0.2,0.6-0.2L45.5,37c-0.2,0-0.5,0.1-1,0.2c-0.5,0.1-0.9,0.1-1.2,0.1c-1.3,0-2.3-0.2-2.8-0.6
	c-0.5-0.4-0.8-0.9-0.8-1.6c0-0.3,0-0.6,0.1-0.8l2.4-11.6h3.9l-0.6,2.7h2.3V25.3z"/>
<polygon class="st0" points="53.4,25.3 51,36.9 47.1,36.9 49.6,25.3 "/>
<polygon class="st0" points="54.4,20.6 53.8,23.6 49.9,23.6 50.5,20.6 "/>
<path class="st0" d="M65,25.3l-5.1,11.6h-5.3l-0.1-11.6h3.9l-0.5,8.6l3.1-8.6C61,25.3,65,25.3,65,25.3z"/>
<path class="st0" d="M74,30.8c-0.5,2.5-1.2,4.2-2.1,5c-0.9,0.9-2.3,1.3-4.2,1.3c-1.4,0-2.4-0.3-3-0.8s-0.9-1.3-0.9-2.4
	c0-0.9,0.1-1.9,0.4-3.1c0.4-2.1,1.1-3.5,2-4.4s2.3-1.3,4.2-1.3c1.4,0,2.4,0.3,3,0.8c0.6,0.6,1,1.5,1,2.7C74.3,29.3,74.2,30,74,30.8z
	 M70,30.8c0.2-1.2,0.4-2,0.4-2.4c0-0.6-0.2-0.9-0.6-0.9c-0.3,0-0.5,0.1-0.7,0.4s-0.3,0.7-0.5,1.3c-0.6,2.3-0.9,3.8-0.9,4.7
	c0,0.5,0.2,0.8,0.6,0.8s0.7-0.3,0.9-0.8S69.7,32.4,70,30.8z"/>
</svg>
