<svg width="298" height="146" viewBox="0 0 298 146" fill="none" xmlns="http://www.w3.org/2000/svg">
<g clip-path="url(#clip0_1526_7667)">
<path d="M42.2897 83.5093L39.7031 95.7835C37.7048 93.911 35.0947 92.8212 32.3537 92.715C30.7644 92.7019 29.2025 93.1267 27.8403 93.9426C26.4781 94.7585 25.3688 95.9336 24.6347 97.3383C22.4475 101.471 20.9104 105.915 20.0773 110.513C18.8202 115.359 18.077 120.323 17.8601 125.324C17.8601 130.765 19.7899 133.506 23.6904 133.506C25.4318 133.418 27.1428 133.016 28.7405 132.32C30.2413 131.82 31.6342 131.043 32.8464 130.029L30.0544 142.753C28.1578 143.76 26.1029 144.438 23.9778 144.758C20.9599 145.439 17.8751 145.782 14.7808 145.781C12.7311 145.969 10.665 145.7 8.73298 144.992C6.801 144.285 5.05183 143.156 3.61296 141.689C1.14546 138.213 -0.0304185 133.989 0.287248 129.742C0.496639 123.65 1.30803 117.592 2.70968 111.658C4.07711 103.266 7.36451 95.3007 12.3173 88.3781C14.3813 85.8052 17.0274 83.7557 20.0389 82.3975C23.0504 81.0392 26.3418 80.4107 29.6438 80.5635C34.068 80.1559 38.5054 81.1896 42.2897 83.5093Z" fill="white"/>
<path d="M71.6874 96.9696L69.4702 107.485C68.4163 106.828 67.1783 106.527 65.9392 106.625C63.8526 106.567 61.7708 106.857 59.7805 107.485L51.8974 144.716H35.9668L45.6565 99.3017L48.818 98.6061L53.786 97.5014C55.3873 97.1741 57.3991 96.8468 59.9037 96.5604C62.4082 96.274 64.7486 96.1513 67.0478 96.1513C68.6399 96.0063 70.2419 96.2888 71.6874 96.9696Z" fill="white"/>
<path d="M108.804 109.94C108.249 112.236 107.237 114.398 105.826 116.296C104.415 118.193 102.635 119.789 100.592 120.987C95.4659 124.118 89.5196 125.656 83.5121 125.405C83.2515 126.504 83.1274 127.631 83.1426 128.76C83.0832 129.684 83.2128 130.61 83.5233 131.482C83.8339 132.354 84.3189 133.154 84.9491 133.834C86.7697 135.203 89.0446 135.832 91.3131 135.593C95.1917 135.509 98.9153 134.06 101.824 131.502L99.4426 142.63C97.3906 143.538 95.2418 144.21 93.0376 144.635C89.9133 145.345 86.7164 145.689 83.5121 145.658C81.2877 145.846 79.0482 145.58 76.9304 144.877C74.8126 144.173 72.8609 143.047 71.1946 141.567C68.4769 138.233 67.1534 133.983 67.4994 129.701C67.5919 126.351 68.0322 123.019 68.8133 119.759C71.8926 104.007 80.3506 96.1108 94.1051 96.1108C98.0371 95.8573 101.945 96.8918 105.232 99.0566C106.513 99.988 107.538 101.226 108.212 102.656C108.887 104.086 109.189 105.662 109.091 107.239C109.077 108.146 108.981 109.05 108.804 109.94ZM93.4482 109.94C93.5299 109.315 93.5299 108.682 93.4482 108.058C93.4482 106.339 92.7502 105.48 91.3953 105.48C88.7675 105.48 86.7557 109.203 85.2365 116.609C86.2047 116.623 87.1657 116.441 88.0617 116.076C88.9578 115.71 89.7705 115.168 90.4509 114.481C91.8918 113.308 92.9377 111.723 93.4482 109.94Z" fill="white"/>
<path d="M155.2 99.3016L145.921 142.834C143.185 143.815 140.348 144.487 137.463 144.839C133.386 145.458 129.269 145.772 125.145 145.78C123.015 145.974 120.868 145.741 118.83 145.095C116.792 144.448 114.905 143.401 113.279 142.016C111.922 140.441 110.89 138.615 110.242 136.642C109.594 134.67 109.343 132.589 109.502 130.519C109.62 126.898 110.074 123.296 110.857 119.759C111.965 113.167 114.975 107.04 119.52 102.125C121.888 100.014 124.655 98.3947 127.658 97.362C130.661 96.3293 133.841 95.9038 137.011 96.1103C138.726 96.1059 140.44 96.2016 142.143 96.3967C143.895 96.6149 145.496 96.8604 146.947 97.1331L150.724 97.9923C151.792 98.2378 152.777 98.4833 153.681 98.7697L155.2 99.3016ZM137.627 106.993C136.549 106.654 135.431 106.462 134.301 106.421C132.864 106.421 131.591 107.607 130.483 109.939C129.069 113.26 127.996 116.714 127.28 120.25C126.453 123.701 125.945 127.221 125.761 130.765C125.761 133.997 126.418 135.593 127.814 135.593C129.042 135.669 130.273 135.488 131.427 135.061L137.627 106.993Z" fill="white"/>
<path d="M189.36 97.2147L187.102 107.689H177.905L173.429 128.76C173.189 129.626 173.064 130.52 173.06 131.419C172.959 132.557 173.313 133.69 174.045 134.569C174.502 134.955 175.032 135.244 175.603 135.42C176.175 135.595 176.776 135.654 177.371 135.592C178.139 135.51 178.896 135.346 179.629 135.101C180.446 134.866 181.243 134.565 182.011 134.201L179.752 144.675C178.401 144.998 177.029 145.23 175.647 145.371C174.069 145.607 172.478 145.743 170.884 145.78C166.923 146.138 162.944 145.342 159.429 143.489C158.335 142.761 157.447 141.765 156.851 140.598C156.254 139.43 155.968 138.129 156.021 136.82C156.013 135.718 156.137 134.619 156.39 133.547L166.45 86.127H182.339L180.04 97.2147H189.36Z" fill="white"/>
<path d="M212.435 97.2151L202.293 144.676H186.363L196.504 97.2151H212.435ZM216.541 78.0264L213.913 90.0142H197.9L200.528 78.0264H216.541Z" fill="white"/>
<path d="M259.857 97.2148L239.122 144.675H217.608L217.156 97.2148H233.128L231.075 132.442L244.008 97.2148H259.857Z" fill="white"/>
<path d="M296.85 119.759C294.77 129.906 291.909 136.725 288.269 140.216C285.898 142.233 283.15 143.763 280.184 144.718C277.217 145.673 274.09 146.034 270.983 145.78C266.626 146.153 262.274 145.011 258.666 142.548C257.334 141.258 256.305 139.69 255.652 137.957C254.999 136.225 254.738 134.369 254.889 132.524C254.937 128.227 255.446 123.948 256.408 119.759C257.383 113.069 260.229 106.788 264.619 101.634C266.965 99.6182 269.692 98.0909 272.64 97.1422C275.587 96.1936 278.696 95.8428 281.782 96.1106C286.171 95.7844 290.534 97.0163 294.099 99.5883C295.536 101.022 296.646 102.747 297.355 104.646C298.063 106.545 298.353 108.574 298.205 110.594C298.098 113.69 297.644 116.764 296.85 119.759ZM280.427 119.759C281.196 116.492 281.69 113.166 281.905 109.817C281.905 107.485 281.166 106.298 279.606 106.298C279.039 106.292 278.48 106.432 277.984 106.704C277.487 106.976 277.07 107.372 276.773 107.853C275.776 109.494 275.068 111.293 274.679 113.172C272.76 119.418 271.521 125.851 270.983 132.361C270.983 134.529 271.763 135.593 273.324 135.593C274.884 135.593 276.075 134.488 277.06 132.32C278.534 128.243 279.62 124.038 280.304 119.759H280.427Z" fill="white"/>
<path d="M50.871 19.5194C50.0187 24.5015 47.671 29.1091 44.1375 32.7347C41.0424 35.7907 36.9472 37.6351 32.6002 37.9308H29.7261L40.278 72.7079H27.3858L18.6404 39.9765L11.7016 72.7079H0L15.4379 0.78065H33.6677C38.3453 0.490857 42.9816 1.8047 46.8063 4.50386C48.3192 5.7523 49.5216 7.33273 50.3194 9.12144C51.1172 10.9102 51.4887 12.8586 51.4048 14.8142C51.3651 16.3951 51.1865 17.9695 50.871 19.5194ZM38.9231 19.9285C39.2292 18.5844 39.4079 17.2145 39.4569 15.8371C39.5556 14.9499 39.4522 14.0519 39.1543 13.2101C38.8564 12.3682 38.3717 11.6043 37.7363 10.975C37.1009 10.3458 36.3312 9.86756 35.4846 9.57595C34.638 9.28434 33.7362 9.18688 32.8465 9.29082H25.2508L20.5291 32.1618H26.9341C33.1339 32.1618 37.1987 28.0704 38.9231 19.9285Z" fill="white"/>
<path d="M93.7357 31.3026C93.0459 34.1137 91.7724 36.7494 89.9974 39.0398C88.2223 41.3301 85.9851 43.2242 83.4301 44.5997C77.5786 47.8133 70.9764 49.4228 64.297 49.264C63.6923 51.8397 63.3756 54.4743 63.3527 57.1195C63.3527 63.5021 66.3499 66.6934 72.3854 66.6934C77.0423 66.5965 81.5401 64.9876 85.1956 62.1111L83.389 70.6621C81.4319 71.7248 79.3294 72.4967 77.1482 72.9533C73.9583 73.7838 70.6733 74.1965 67.3763 74.1807C65.2598 74.3507 63.1311 74.0741 61.129 73.3691C59.1269 72.6642 57.2964 71.5466 55.7569 70.0893C53.0533 66.5927 51.7641 62.2129 52.1438 57.8151C52.2125 53.1995 52.7769 48.6046 53.8272 44.1088C57.6866 26.352 66.4731 17.4736 80.1865 17.4736C83.8587 17.256 87.4829 18.3919 90.3689 20.6649C91.5708 21.6573 92.5288 22.9107 93.1693 24.3291C93.8098 25.7475 94.1159 27.2932 94.0641 28.8478C94.0456 29.6756 93.9355 30.4989 93.7357 31.3026ZM82.7321 31.3026C82.878 30.7407 82.9606 30.1644 82.9784 29.5842C82.9784 26.2702 81.3772 24.5927 78.2568 24.5927C72.5907 24.5927 68.4028 30.5662 65.9393 42.4722C69.7589 42.457 73.4986 41.3801 76.7376 39.3627C78.2704 38.5416 79.6025 37.3934 80.6387 36.0002C81.6749 34.6069 82.3897 33.0029 82.7321 31.3026Z" fill="white"/>
<path d="M164.232 35.1082L156.021 73.0765H144.689L151.915 39.2814C152.469 36.9064 152.758 34.4778 152.777 32.0396C152.777 27.4981 151.053 25.2478 147.563 25.2478C144.653 25.2943 141.785 25.9494 139.146 27.1708C139.51 28.3344 139.649 29.556 139.557 30.7713C139.639 32.5136 139.501 34.2593 139.146 35.9673L131.386 73.0765H119.849L127.28 39.2814C127.836 36.8791 128.125 34.4231 128.142 31.9578C128.142 27.4572 126.295 25.2478 122.682 25.2478C120.358 25.3369 118.079 25.9082 115.989 26.9253L105.889 73.0765H94.4336L105.519 20.9928C108.287 19.9216 111.145 19.1001 114.059 18.5379C117.337 17.8287 120.682 17.4721 124.037 17.4741C128.168 17.0531 132.299 18.2735 135.533 20.87C140.507 18.787 145.824 17.6358 151.217 17.4741C154.854 17.2443 158.441 18.4161 161.235 20.7473C162.404 21.9314 163.32 23.3398 163.927 24.887C164.534 26.4342 164.82 28.088 164.766 29.7484C164.822 31.5505 164.643 33.3522 164.232 35.1082Z" fill="white"/>
<path d="M211.367 44.4774C208.945 55.9743 205.907 63.7889 202.252 68.0031C200.075 70.2355 197.43 71.9614 194.506 73.0576C191.582 74.1538 188.451 74.5933 185.337 74.3448C183.232 74.5311 181.112 74.3017 179.097 73.6698C177.082 73.038 175.212 72.016 173.594 70.6625C170.986 67.4859 169.733 63.4167 170.104 59.3293C170.241 54.2809 170.915 49.2612 172.116 44.3547C173.26 36.9618 176.16 29.9482 180.574 23.8976C182.735 21.6388 185.376 19.8897 188.302 18.7784C191.229 17.667 194.368 17.2214 197.49 17.474C199.591 17.2874 201.708 17.5206 203.717 18.16C205.727 18.7993 207.588 19.8319 209.191 21.1972C211.885 24.4307 213.197 28.5884 212.846 32.7759C212.754 36.7164 212.259 40.6372 211.367 44.4774ZM199.543 44.4774C200.448 40.248 200.997 35.9508 201.185 31.6303C201.185 27.2116 199.378 25.0432 195.765 25.0432C194.328 25.0706 192.926 25.4892 191.71 26.2536C190.494 27.018 189.511 28.0992 188.868 29.3801C186.48 34.194 184.833 39.3386 183.982 44.6411C182.766 49.6771 182.011 54.8123 181.723 59.9839C181.549 61.7909 181.982 63.6044 182.955 65.1391C183.474 65.6945 184.114 66.1236 184.826 66.3932C185.538 66.6628 186.303 66.7656 187.061 66.6938C188.631 66.6453 190.153 66.1493 191.449 65.2646C192.744 64.3799 193.758 63.1436 194.369 61.7023C196.822 56.2033 198.56 50.4149 199.543 44.4774Z" fill="white"/>
<path d="M248.812 18.6599L247.088 26.5154H236.536L229.926 58.1012C229.645 59.2113 229.507 60.3524 229.515 61.4971C229.515 64.9748 231.116 66.6932 234.319 66.6932C236.195 66.562 238.018 66.017 239.656 65.0975L237.932 73.2803C235.424 74.1479 232.785 74.577 230.131 74.5487C221.673 74.5487 217.444 71.3983 217.444 65.0975C217.48 63.7191 217.659 62.348 217.978 61.0061L229.72 5.93555H241.011L238.137 18.6599H248.812Z" fill="white"/>
<path d="M289.419 44.4774C286.997 55.9743 283.958 63.7889 280.304 68.0031C278.13 70.2401 275.485 71.9691 272.56 73.0657C269.635 74.1622 266.503 74.5991 263.388 74.3448C261.29 74.5301 259.177 74.3002 257.168 73.6682C255.16 73.0363 253.297 72.0148 251.687 70.6625C249.064 67.4921 247.796 63.4223 248.156 59.3293C248.314 54.2826 248.988 49.2651 250.167 44.3547C251.341 36.9629 254.253 29.9528 258.667 23.8976C260.824 21.634 263.464 19.8818 266.392 18.7701C269.32 17.6584 272.46 17.2155 275.582 17.4741C277.679 17.1166 279.831 17.2653 281.858 17.9079C283.885 18.5504 285.728 19.668 287.232 21.1668C288.737 22.6657 289.858 24.5021 290.503 26.5221C291.148 28.542 291.297 30.6866 290.938 32.776C290.83 36.7176 290.321 40.6382 289.419 44.4774ZM277.594 44.4774C278.507 40.2505 279.043 35.9514 279.196 31.6304C279.196 27.2116 277.389 25.0432 273.776 25.0432C272.336 25.0569 270.927 25.4698 269.709 26.2358C268.491 27.0017 267.511 28.0905 266.878 29.3801C264.454 34.1827 262.792 39.3309 261.951 44.6411C260.765 49.6813 260.023 54.8151 259.734 59.9839C259.562 61.7853 259.98 63.5937 260.925 65.1391C261.446 65.6921 262.086 66.1195 262.797 66.3889C263.509 66.6582 264.273 66.7625 265.031 66.6939C266.6 66.6453 268.123 66.1493 269.418 65.2646C270.714 64.3799 271.727 63.1436 272.339 61.7023C274.82 56.2072 276.586 50.4187 277.594 44.4774Z" fill="white"/>
</g>
<defs>
<clipPath id="clip0_1526_7667">
<rect width="298" height="145" fill="white" transform="translate(0 0.780273)"/>
</clipPath>
</defs>
</svg>
